<svg preserveAspectRatio="none" width="100%" height="100%" overflow="visible" style="display: block;" viewBox="0 0 116.728 108.447" fill="none" xmlns="http://www.w3.org/2000/svg">
<g id="cube">
<path id="Vector" d="M94.8487 27.2455L48.4351 54.0897L2.02168 27.2455C2.9745 25.5959 4.33348 24.2175 5.96939 23.2414L42.7956 1.98038C46.292 0.00653797 50.5781 0.00654402 54.0746 1.98038L90.9006 23.2414C92.5363 24.2171 93.8952 25.5987 94.8487 27.2455Z" fill="var(--fill-0, white)" stroke="var(--stroke-0, #E5E7EC)"/>
<path id="Vector_2" d="M48.436 54.0905L48.436 107.666C46.6579 107.664 44.9035 107.259 43.3041 106.482L6.13951 84.9951C4.42778 84.0048 3.00595 82.5824 2.01627 80.8706C1.02659 79.1582 0.503741 77.2162 0.500001 75.2385L0.500013 32.9422C0.509318 30.9442 1.03377 28.9824 2.02268 27.2463L48.436 54.0905Z" fill="var(--fill-0, white)" stroke="var(--stroke-0, #E5E7EC)"/>
<g id="Mask group">
<mask id="mask0_0_4" style="mask-type:alpha" maskUnits="userSpaceOnUse" x="47" y="26" width="50" height="83">
<path id="Vector_3" d="M96.3723 32.9443L96.3723 75.2405C96.3686 77.2182 95.8454 79.1602 94.8556 80.8726C93.8659 82.5844 92.4441 84.0068 90.7323 84.9971L53.3988 106.54C51.848 107.274 50.1505 107.657 48.4361 107.668L48.4361 54.0925L94.8496 27.2483C95.8363 28.9853 96.3608 30.9479 96.3723 32.9443Z" fill="var(--fill-0, #99A1AF)" stroke="var(--stroke-0, white)"/>
</mask>
<g mask="url(#mask0_0_4)">
<path id="Vector_4" d="M96.3715 32.9429L96.3715 75.2392C96.3679 77.2169 95.8446 79.1589 94.8549 80.8713C93.8652 82.5831 92.4434 84.0055 90.7316 84.9958L53.3981 106.539C51.8473 107.272 50.1497 107.655 48.4353 107.667L48.4353 54.0912L94.8489 27.247C95.8356 28.984 96.3601 30.9465 96.3715 32.9429Z" fill="var(--fill-0, white)" stroke="var(--stroke-0, white)"/>
<g id="Group">
<path id="Vector_5" d="M73.3355 5.44518L19.7039 113.498M75.7524 5.44518L22.1208 113.498M78.17 5.44518L24.5378 113.498M80.5869 5.44518L26.9548 113.498M83.0039 5.44518L29.3717 113.498M85.4208 5.44518L31.7887 113.498M87.8378 5.44518L34.2056 113.498M90.2547 5.44518L36.6226 113.498M92.6717 5.44518L39.0395 113.498M95.0886 5.44518L41.4564 113.498M97.5056 5.44518L43.8734 113.498M99.9225 5.44518L46.2903 113.498M102.339 5.44518L48.7073 113.498M104.756 5.44518L51.1242 113.498M107.173 5.44518L53.5412 113.498M109.59 5.44518L55.9581 113.498M112.007 5.44518L58.3752 113.498M114.424 5.44518L60.7922 113.498M116.841 5.44518L63.2091 113.498M119.258 5.44518L65.6261 113.498M121.675 5.44518L68.043 113.498M124.092 5.44518L70.4599 113.498M126.509 5.44524L72.8769 113.498M128.926 5.44524L75.2938 113.498M131.343 5.44524L77.7108 113.498M133.76 5.44524L80.1277 113.498" stroke="var(--stroke-0, #E5E7EC)"/>
</g>
</g>
</g>
</g>
</svg>
