<svg xmlns="http://www.w3.org/2000/svg" width="1782" height="356" viewBox="0 0 1782 356" fill="none"><defs><symbol id="hf-dashed" viewBox="0 0 404 375" preserveAspectRatio="xMidYMid meet">
<path d="M399.042 328.401C394.38 338.995 382.792 347.34 360.291 356.296C335.916 365.997 310.003 372.733 283.63 372.733C259.636 372.733 241.783 366.085 230.458 352.954C220.726 354.627 210.726 355.498 200.522 355.498C191.014 355.498 181.679 354.739 172.578 353.285C161.236 366.194 143.482 372.729 119.691 372.729C93.4304 372.729 67.31 365.958 43.0344 356.296C20.5296 347.34 8.94163 338.995 4.27904 328.401C2.65271 324.735 1.95423 320.725 2.24531 316.726C2.5364 312.726 3.80808 308.859 5.94802 305.468C3.85823 302.313 2.45703 298.754 1.83586 295.021C1.21469 291.289 1.38751 287.467 2.34304 283.806C3.72741 278.522 6.5875 274.126 10.4736 270.971C8.6003 267.883 7.37272 264.448 6.86508 260.873C5.74774 253.093 8.31621 245.318 14.1032 238.993C15.4234 237.552 16.9258 236.29 18.5725 235.237C22.6484 232.649 27.3879 231.299 32.2159 231.351C30.7774 226.729 29.5302 222.05 28.4774 217.325C25.6403 204.578 24.2134 191.558 24.2224 178.499C24.2224 80.7429 103.153 1.5 200.522 1.5C297.892 1.5 376.822 80.7429 376.822 178.499C376.829 191.513 375.413 204.489 372.599 217.195C371.53 222.007 370.259 226.772 368.79 231.478C373.621 230.992 378.491 231.906 382.816 234.113C385.222 235.348 387.39 237 389.218 238.993C395.005 245.318 397.574 253.093 396.456 260.873C395.949 264.448 394.721 267.883 392.848 270.971C396.734 274.126 399.594 278.522 400.978 283.806C401.934 287.467 402.107 291.289 401.486 295.021C400.864 298.754 399.463 302.313 397.373 305.468C399.513 308.859 400.785 312.726 401.076 316.726C401.367 320.725 400.669 324.735 399.042 328.401Z" fill="white" stroke="#E5E5E5" stroke-width="3" stroke-linecap="round" stroke-linejoin="round" stroke-dasharray="6.32 4.92"/>
<path d="M241.993 338.091C229.474 319.658 230.363 305.821 247.545 288.584C264.719 271.349 274.723 246.135 274.723 246.135C274.723 246.135 278.458 231.491 286.964 232.84C295.471 234.189 301.718 256.068 283.897 269.459C266.076 282.842 287.446 291.936 294.304 279.364C301.159 266.796 319.88 234.477 329.592 228.297C339.296 222.116 346.13 225.581 343.839 238.321C341.552 251.058 300.962 281.936 304.912 288.619C308.861 295.298 322.779 280.769 322.779 280.769C322.779 280.769 366.33 240.977 375.81 251.346C385.29 261.715 368.617 270.404 344.855 284.845C321.089 299.286 319.244 303.098 322.617 308.562C325.99 314.026 378.448 269.621 383.378 288.447C388.301 307.269 329.841 312.733 333.449 325.726C337.058 338.727 374.629 301.131 382.314 315.779C390.001 330.431 329.296 347.648 328.804 347.774C309.195 352.883 259.393 363.705 241.997 338.091M161.327 338.091C173.85 319.658 172.961 305.821 155.783 288.584C138.601 271.349 128.601 246.135 128.601 246.135C128.601 246.135 124.866 231.491 116.36 232.84C107.853 234.189 101.603 256.068 119.424 269.459C137.245 282.842 115.875 291.936 109.02 279.364C102.165 266.792 83.4407 234.477 73.7326 228.297C64.0279 222.116 57.1939 225.581 59.4813 238.321C61.7721 251.058 102.358 281.936 98.4123 288.619C94.4594 295.298 80.542 280.769 80.542 280.769C80.542 280.769 36.994 240.977 27.5108 251.346C18.031 261.715 34.7067 270.404 58.4658 284.845C82.2355 299.286 84.0802 303.098 80.7071 308.562C77.334 314.026 24.8755 269.621 19.9459 288.447C15.0233 307.269 73.4831 312.733 69.8746 325.726C66.2661 338.727 28.6948 301.131 21.0105 315.779C13.3227 330.431 74.0312 347.648 74.5196 347.774C94.1257 352.883 143.931 363.705 161.327 338.091ZM175.624 223.374C177.113 224.229 178.634 225.026 180.185 225.763C186.053 228.599 193.182 230.366 201.854 230.366C211.27 230.366 218.881 228.283 225.033 224.997C226.498 224.211 227.925 223.355 229.309 222.433C225.175 218.704 220.298 215.894 214.998 214.19C213.062 213.571 211.063 216.681 209.004 219.871C207.036 222.928 205.023 226.055 202.971 226.055C201.049 226.055 199.155 222.882 197.307 219.776C195.388 216.558 193.512 213.417 191.696 213.958C185.662 215.765 180.151 218.994 175.624 223.374Z" stroke="#E5E5E5" stroke-width="3" stroke-linecap="round" stroke-linejoin="round" stroke-dasharray="4.92 4.22"/>
<path d="M236.688 23.9403C224.834 21.1623 212.698 19.7628 200.523 19.7697C179.378 19.7425 158.446 23.9851 138.981 32.243C95.8972 50.5385 62.5704 87.4632 49.0254 132.961C44.6368 147.741 42.4142 163.08 42.4268 178.498C42.4268 191.323 43.9377 203.789 46.7978 215.732L46.9172 215.591C51.506 210.082 58.0906 207.046 65.4551 207.046C71.351 207.046 77.4155 209.003 83.4871 212.868C87.5137 215.433 91.962 219.987 96.5437 225.703C100.788 219.794 106.733 215.865 113.529 214.79C114.827 214.585 116.139 214.482 117.453 214.481H117.46C132.977 214.481 142.316 227.998 145.843 240.155C147.597 244.266 156.005 262.973 168.654 275.66C187.912 294.985 192.736 314.922 183.2 336.281C188.954 336.912 194.738 337.228 200.526 337.226L201.236 337.223H201.419L201.763 337.219C207.865 337.174 213.96 336.778 220.016 336.031C210.635 314.767 215.491 294.911 234.675 275.66C247.324 262.973 255.732 244.262 257.486 240.155C261.013 227.998 270.352 214.481 285.869 214.481H285.876C287.179 214.481 288.5 214.586 289.8 214.79C296.599 215.865 302.541 219.794 306.785 225.703C311.367 219.987 315.815 215.437 319.842 212.868C325.91 209.003 331.978 207.046 337.874 207.046C344.374 207.046 350.266 209.411 354.715 213.754C357.323 202.183 358.636 190.359 358.629 178.498C358.627 173.017 358.355 167.606 357.814 162.265C350.948 94.3956 301.487 39.1614 236.692 23.9403M167.551 234.456C150.144 219.91 142.516 198.35 142.516 184.327C142.516 173.445 149.937 177.135 161.767 183.02C172.284 188.252 186.289 195.212 201.661 195.212C217.033 195.212 231.035 188.252 241.555 183.02C253.385 177.135 260.809 173.445 260.809 184.327C260.809 197.795 254.611 219.625 237.76 233.075C228.913 240.074 217.149 244.909 201.837 244.909C187.448 244.909 176.194 240.763 167.551 234.456ZM261.294 141.369C259.548 138.833 257.714 136.169 255.251 135.291C252.971 134.483 249.987 135.684 247.124 136.837C243.47 138.302 240.005 139.693 238.445 136.745C232.546 125.607 236.759 111.781 247.851 105.861C258.944 99.9401 272.717 104.164 278.616 115.302C284.516 126.44 280.303 140.266 269.211 146.187C265.844 147.986 263.652 144.795 261.294 141.369ZM148.071 135.291C145.608 136.169 143.774 138.833 142.028 141.369C139.674 144.795 137.478 147.986 134.111 146.19C123.015 140.266 118.806 126.44 124.705 115.302C130.601 104.164 144.378 99.9366 155.471 105.857C166.563 111.781 170.773 125.607 164.877 136.742C163.317 139.693 159.852 138.302 156.198 136.833C153.335 135.684 150.351 134.486 148.071 135.291ZM322.228 141.956C322.235 145.885 320.682 149.656 317.909 152.44C315.136 155.224 311.371 156.793 307.442 156.801C305.496 156.798 303.571 156.411 301.774 155.663C299.978 154.915 298.347 153.82 296.973 152.442C295.6 151.063 294.512 149.428 293.771 147.628C293.029 145.829 292.65 143.902 292.653 141.956C292.65 140.01 293.029 138.083 293.771 136.284C294.512 134.485 295.6 132.849 296.973 131.471C298.347 130.092 299.978 128.998 301.774 128.25C303.571 127.502 305.496 127.115 307.442 127.111C311.371 127.119 315.136 128.688 317.909 131.472C320.682 134.256 322.235 138.027 322.228 141.956ZM95.8797 156.801C99.8088 156.793 103.574 155.224 106.346 152.44C109.119 149.656 110.672 145.885 110.665 141.956C110.672 138.027 109.119 134.256 106.346 131.472C103.574 128.688 99.8088 127.119 95.8797 127.111C91.9506 127.119 88.1857 128.688 85.413 131.472C82.6403 134.256 81.0868 138.027 81.0943 141.956C81.0868 145.885 82.6403 149.656 85.413 152.44C88.1857 155.224 91.9506 156.793 95.8797 156.801Z" stroke="#E5E5E5" stroke-width="3" stroke-linecap="round" stroke-linejoin="round" stroke-dasharray="6.32 4.92"/>
</symbol></defs><g transform="rotate(-13.18 786.41 118.96)"><use href="#hf-dashed" x="727.09" y="65.86" width="119.84" height="111.23"/></g><g transform="rotate(17.09 188.51 215.16)"><use href="#hf-dashed" x="129.19" y="162.06" width="119.84" height="111.23"/></g><g transform="rotate(44.65 1285.03 307.46)"><use href="#hf-dashed" x="1225.71" y="254.36" width="119.84" height="111.23"/></g><g transform="rotate(-133.35 604.23 121.84)"><use href="#hf-dashed" x="544.91" y="68.74" width="119.84" height="111.23"/></g><g transform="rotate(-126.76 495.67 369.69)"><use href="#hf-dashed" x="436.35" y="316.59" width="119.84" height="111.23"/></g><g transform="rotate(-29.04 1522.52 161.08)"><use href="#hf-dashed" x="1463.20" y="107.98" width="119.84" height="111.23"/></g><g transform="rotate(81.63 1493.65 228.85)"><use href="#hf-dashed" x="1434.33" y="175.75" width="119.84" height="111.23"/></g><g transform="rotate(104.46 645.46 274.67)"><use href="#hf-dashed" x="586.14" y="221.57" width="119.84" height="111.23"/></g><g transform="rotate(-19.27 1238.18 161.59)"><use href="#hf-dashed" x="1178.86" y="108.49" width="119.84" height="111.23"/></g><g transform="rotate(-109.52 548.2 335.21)"><use href="#hf-dashed" x="488.88" y="282.11" width="119.84" height="111.23"/></g><g transform="rotate(-121.18 897.12 342.79)"><use href="#hf-dashed" x="837.80" y="289.69" width="119.84" height="111.23"/></g><g transform="rotate(-54.63 123.62 284.42)"><use href="#hf-dashed" x="64.30" y="231.32" width="119.84" height="111.23"/></g><g transform="rotate(174.93 403.9 151.62)"><use href="#hf-dashed" x="344.58" y="98.52" width="119.84" height="111.23"/></g><g transform="rotate(123.21 300.08 203.52)"><use href="#hf-dashed" x="240.76" y="150.42" width="119.84" height="111.23"/></g><g transform="rotate(56.79 1269.54 185.89)"><use href="#hf-dashed" x="1210.22" y="132.79" width="119.84" height="111.23"/></g><g transform="rotate(161.75 1036.87 311.41)"><use href="#hf-dashed" x="977.55" y="258.31" width="119.84" height="111.23"/></g><g transform="rotate(-99.5 1058.27 226.72)"><use href="#hf-dashed" x="998.95" y="173.62" width="119.84" height="111.23"/></g><g transform="rotate(17.24 963.36 143.59)"><use href="#hf-dashed" x="904.04" y="90.49" width="119.84" height="111.23"/></g><g transform="rotate(155.16 501.48 199.39)"><use href="#hf-dashed" x="442.16" y="146.29" width="119.84" height="111.23"/></g><g transform="rotate(-42.59 878.76 152.18)"><use href="#hf-dashed" x="819.44" y="99.08" width="119.84" height="111.23"/></g><g transform="rotate(124.23 964.26 356.32)"><use href="#hf-dashed" x="904.94" y="303.22" width="119.84" height="111.23"/></g><g transform="rotate(8.63 1151.21 363.53)"><use href="#hf-dashed" x="1091.87" y="310.42" width="119.86" height="111.26"/></g><g transform="rotate(36.51 699.96 280.5)"><use href="#hf-dashed" x="640.64" y="227.40" width="119.84" height="111.23"/></g><g transform="rotate(118.65 240.62 227.42)"><use href="#hf-dashed" x="181.30" y="174.32" width="119.84" height="111.23"/></g><g transform="rotate(-20.79 570.25 158.63)"><use href="#hf-dashed" x="510.93" y="105.53" width="119.84" height="111.23"/></g><g transform="rotate(-30.94 1278.36 152.38)"><use href="#hf-dashed" x="1219.04" y="99.28" width="119.84" height="111.23"/></g><g transform="rotate(-126.76 1481.17 288.83)"><use href="#hf-dashed" x="1421.85" y="235.73" width="119.84" height="111.23"/></g><g transform="rotate(-3.55 940.97 342.56)"><use href="#hf-dashed" x="881.65" y="289.46" width="119.84" height="111.23"/></g><g transform="rotate(-59.84 1218.36 201.51)"><use href="#hf-dashed" x="1159.04" y="148.41" width="119.84" height="111.23"/></g><g transform="rotate(-122.7 1118.9 292.75)"><use href="#hf-dashed" x="1059.58" y="239.65" width="119.84" height="111.23"/></g><g transform="rotate(-112.55 1132.76 336.22)"><use href="#hf-dashed" x="1073.42" y="283.11" width="119.86" height="111.26"/></g><g transform="rotate(150.08 755.7 273.92)"><use href="#hf-dashed" x="696.38" y="220.82" width="119.84" height="111.23"/></g><g transform="rotate(-113.95 713.18 320.6)"><use href="#hf-dashed" x="653.86" y="267.50" width="119.84" height="111.23"/></g><g transform="rotate(-146.03 923.25 312.44)"><use href="#hf-dashed" x="863.93" y="259.34" width="119.84" height="111.23"/></g><g transform="rotate(86.19 1038.59 111.42)"><use href="#hf-dashed" x="979.27" y="58.32" width="119.84" height="111.23"/></g><g transform="rotate(-22.11 289.25 140.32)"><use href="#hf-dashed" x="229.93" y="87.22" width="119.84" height="111.23"/></g><g transform="rotate(152.11 1337.76 179.13)"><use href="#hf-dashed" x="1278.44" y="126.03" width="119.84" height="111.23"/></g><g transform="rotate(-52.22 910.73 153.46)"><use href="#hf-dashed" x="851.41" y="100.36" width="119.84" height="111.23"/></g><g transform="rotate(54.76 228.41 294.36)"><use href="#hf-dashed" x="169.09" y="241.26" width="119.84" height="111.23"/></g><g transform="rotate(-54.26 1461.46 294.99)"><use href="#hf-dashed" x="1402.14" y="241.89" width="119.84" height="111.23"/></g><g transform="rotate(-34.98 183.38 341.42)"><use href="#hf-dashed" x="124.06" y="288.32" width="119.84" height="111.23"/></g><g transform="rotate(91.78 1597.31 262.76)"><use href="#hf-dashed" x="1537.99" y="209.66" width="119.84" height="111.23"/></g><g transform="rotate(77.57 721.36 185.27)"><use href="#hf-dashed" x="662.04" y="132.17" width="119.84" height="111.23"/></g><g transform="rotate(130.31 795.1 230.9)"><use href="#hf-dashed" x="735.78" y="177.80" width="119.84" height="111.23"/></g><g transform="rotate(-62.87 811.62 303.0)"><use href="#hf-dashed" x="752.30" y="249.90" width="119.84" height="111.23"/></g><g transform="rotate(132.33 1299.3 131.58)"><use href="#hf-dashed" x="1239.96" y="78.47" width="119.86" height="111.26"/></g><g transform="rotate(-113.58 438.8 281.77)"><use href="#hf-dashed" x="379.48" y="228.67" width="119.84" height="111.23"/></g><g transform="rotate(145.52 1634.63 297.36)"><use href="#hf-dashed" x="1575.31" y="244.26" width="119.84" height="111.23"/></g><g transform="rotate(8.62 260.75 310.37)"><use href="#hf-dashed" x="201.43" y="257.27" width="119.84" height="111.23"/></g><g transform="rotate(43.1 523.08 289.32)"><use href="#hf-dashed" x="463.76" y="236.22" width="119.84" height="111.23"/></g><g transform="rotate(-41.25 708.82 342.31)"><use href="#hf-dashed" x="649.50" y="289.21" width="119.84" height="111.23"/></g><g transform="rotate(77.57 270.34 223.31)"><use href="#hf-dashed" x="211.02" y="170.21" width="119.84" height="111.23"/></g><g transform="rotate(27.89 144.37 279.96)"><use href="#hf-dashed" x="85.05" y="226.86" width="119.84" height="111.23"/></g><g transform="rotate(-62.87 1210.88 364.91)"><use href="#hf-dashed" x="1151.56" y="311.81" width="119.84" height="111.23"/></g><g transform="rotate(-88.73 661.75 125.8)"><use href="#hf-dashed" x="602.43" y="72.70" width="119.84" height="111.23"/></g><g transform="rotate(-174.18 93.85 529.96)"><use href="#hf-dashed" x="34.53" y="476.86" width="119.84" height="111.23"/></g><g transform="rotate(-17.75 376.82 203.31)"><use href="#hf-dashed" x="317.50" y="150.21" width="119.84" height="111.23"/></g><g transform="rotate(-42.59 1569.88 324.01)"><use href="#hf-dashed" x="1510.56" y="270.91" width="119.84" height="111.23"/></g><g transform="rotate(-115.09 1547.98 321.94)"><use href="#hf-dashed" x="1488.64" y="268.83" width="119.86" height="111.26"/></g><g transform="rotate(-92.29 1132.85 299.5)"><use href="#hf-dashed" x="1073.53" y="246.40" width="119.84" height="111.23"/></g><g transform="rotate(-97.35 642.68 342.64)"><use href="#hf-dashed" x="583.36" y="289.54" width="119.84" height="111.23"/></g><g transform="rotate(60.33 1086.41 199.84)"><use href="#hf-dashed" x="1027.09" y="146.74" width="119.84" height="111.23"/></g><g transform="rotate(-174.43 1230.83 340.59)"><use href="#hf-dashed" x="1171.51" y="287.49" width="119.84" height="111.23"/></g><g transform="rotate(-88.73 1463.49 348.57)"><use href="#hf-dashed" x="1404.17" y="295.47" width="119.84" height="111.23"/></g><g transform="rotate(113.08 957.87 182.87)"><use href="#hf-dashed" x="898.55" y="129.77" width="119.84" height="111.23"/></g><g transform="rotate(-101.92 1566.63 224.44)"><use href="#hf-dashed" x="1507.31" y="171.34" width="119.84" height="111.23"/></g><g transform="rotate(77.57 774.68 224.15)"><use href="#hf-dashed" x="715.36" y="171.05" width="119.84" height="111.23"/></g><g transform="rotate(-3.55 1535.8 289.78)"><use href="#hf-dashed" x="1476.48" y="236.68" width="119.84" height="111.23"/></g><g transform="rotate(-3.55 1620.15 322.34)"><use href="#hf-dashed" x="1560.83" y="269.24" width="119.84" height="111.23"/></g><g transform="rotate(64.4 1031.07 254.25)"><use href="#hf-dashed" x="971.73" y="201.14" width="119.86" height="111.26"/></g><g transform="rotate(-119.15 1136.56 120.86)"><use href="#hf-dashed" x="1077.22" y="67.75" width="119.86" height="111.26"/></g><g transform="rotate(-169.86 831.59 294.36)"><use href="#hf-dashed" x="772.27" y="241.26" width="119.84" height="111.23"/></g><g transform="rotate(-32.8 121.8 340.65)"><use href="#hf-dashed" x="62.48" y="287.55" width="119.84" height="111.23"/></g><g transform="rotate(125.24 1134.42 153.03)"><use href="#hf-dashed" x="1075.08" y="99.92" width="119.86" height="111.26"/></g><g transform="rotate(-138.38 774.75 374.24)"><use href="#hf-dashed" x="715.43" y="321.14" width="119.84" height="111.23"/></g><g transform="rotate(-83.66 280.69 319.63)"><use href="#hf-dashed" x="221.37" y="266.53" width="119.84" height="111.23"/></g><g transform="rotate(-86.71 675.0 267.94)"><use href="#hf-dashed" x="615.68" y="214.84" width="119.84" height="111.23"/></g><g transform="rotate(8.62 1346.79 246.33)"><use href="#hf-dashed" x="1287.47" y="193.23" width="119.84" height="111.23"/></g><g transform="rotate(-59.83 1400.73 157.39)"><use href="#hf-dashed" x="1341.41" y="104.29" width="119.84" height="111.23"/></g><g transform="rotate(-62.87 1102.22 244.88)"><use href="#hf-dashed" x="1042.90" y="191.78" width="119.84" height="111.23"/></g><g transform="rotate(22.4 484.62 110.65)"><use href="#hf-dashed" x="425.30" y="57.55" width="119.84" height="111.23"/></g><g transform="rotate(-99.89 366.12 290.87)"><use href="#hf-dashed" x="306.80" y="237.77" width="119.84" height="111.23"/></g><g transform="rotate(-153.64 289.05 290.85)"><use href="#hf-dashed" x="229.73" y="237.75" width="119.84" height="111.23"/></g><g transform="rotate(2.98 1239.87 76.99)"><use href="#hf-dashed" x="1180.53" y="23.88" width="119.86" height="111.26"/></g><g transform="rotate(-54.25 1114.0 370.79)"><use href="#hf-dashed" x="1054.68" y="317.69" width="119.84" height="111.23"/></g><g transform="rotate(-21.8 727.17 377.56)"><use href="#hf-dashed" x="667.85" y="324.46" width="119.84" height="111.23"/></g><g transform="rotate(-123.72 631.83 228.51)"><use href="#hf-dashed" x="572.51" y="175.41" width="119.84" height="111.23"/></g><g transform="rotate(-120.18 1372.13 332.07)"><use href="#hf-dashed" x="1312.81" y="278.97" width="119.84" height="111.23"/></g><g transform="rotate(-163.77 423.27 224.74)"><use href="#hf-dashed" x="363.95" y="171.64" width="119.84" height="111.23"/></g><g transform="rotate(127.27 978.74 200.78)"><use href="#hf-dashed" x="919.40" y="147.67" width="119.86" height="111.26"/></g><g transform="rotate(-29.4 1158.65 108.25)"><use href="#hf-dashed" x="1099.33" y="55.15" width="119.84" height="111.23"/></g><g transform="rotate(126.26 1020.57 188.27)"><use href="#hf-dashed" x="961.23" y="135.16" width="119.86" height="111.26"/></g><g transform="rotate(48.17 445.5 263.34)"><use href="#hf-dashed" x="386.18" y="210.24" width="119.84" height="111.23"/></g><g transform="rotate(48.17 425.09 328.17)"><use href="#hf-dashed" x="365.77" y="275.07" width="119.84" height="111.23"/></g><g transform="rotate(124.22 297.43 208.38)"><use href="#hf-dashed" x="238.11" y="155.28" width="119.84" height="111.23"/></g><g transform="rotate(-27.69 1372.97 103.42)"><use href="#hf-dashed" x="1313.65" y="50.32" width="119.84" height="111.23"/></g><g transform="rotate(-175.45 1217.5 195.71)"><use href="#hf-dashed" x="1158.18" y="142.61" width="119.84" height="111.23"/></g><g transform="rotate(-20.79 691.5 167.48)"><use href="#hf-dashed" x="632.18" y="114.38" width="119.84" height="111.23"/></g><g transform="rotate(136.39 1240.24 176.95)"><use href="#hf-dashed" x="1180.90" y="123.84" width="119.86" height="111.26"/></g><g transform="rotate(-18.77 550.35 239.4)"><use href="#hf-dashed" x="491.03" y="186.30" width="119.84" height="111.23"/></g><g transform="rotate(-44.09 367.42 332.64)"><use href="#hf-dashed" x="308.10" y="279.54" width="119.84" height="111.23"/></g><g transform="rotate(82.14 759.38 349.32)"><use href="#hf-dashed" x="700.06" y="296.22" width="119.84" height="111.23"/></g><g transform="rotate(-14.06 1437.07 140.66)"><use href="#hf-dashed" x="1377.75" y="87.56" width="119.84" height="111.23"/></g><g transform="rotate(-1.52 899.97 216.71)"><use href="#hf-dashed" x="840.65" y="163.61" width="119.84" height="111.23"/></g><g transform="rotate(26.24 1707.83 335.01)"><use href="#hf-dashed" x="1648.51" y="281.91" width="119.84" height="111.23"/></g><g transform="rotate(-38.03 1130.15 165.18)"><use href="#hf-dashed" x="1070.83" y="112.08" width="119.84" height="111.23"/></g><g transform="rotate(178.99 982.67 343.6)"><use href="#hf-dashed" x="923.35" y="290.50" width="119.84" height="111.23"/></g><g transform="rotate(-38.03 571.99 107.29)"><use href="#hf-dashed" x="512.67" y="54.19" width="119.84" height="111.23"/></g><g transform="rotate(164.28 952.5 187.99)"><use href="#hf-dashed" x="893.18" y="134.89" width="119.84" height="111.23"/></g><g transform="rotate(27.36 356.22 156.6)"><use href="#hf-dashed" x="296.90" y="103.50" width="119.84" height="111.23"/></g><g transform="rotate(-175.95 1217.4 229.39)"><use href="#hf-dashed" x="1158.08" y="176.29" width="119.84" height="111.23"/></g><g transform="rotate(-95.33 1464.43 349.85)"><use href="#hf-dashed" x="1405.11" y="296.75" width="119.84" height="111.23"/></g><g transform="rotate(99.38 1050.58 244.32)"><use href="#hf-dashed" x="991.26" y="191.22" width="119.84" height="111.23"/></g><g transform="rotate(-152.11 1192.57 272.56)"><use href="#hf-dashed" x="1133.22" y="219.44" width="119.89" height="111.28"/></g><g transform="rotate(45.22 1318.45 96.02)"><use href="#hf-dashed" x="1259.13" y="42.92" width="119.84" height="111.23"/></g><g transform="rotate(10.63 1345.38 135.0)"><use href="#hf-dashed" x="1286.06" y="81.90" width="119.84" height="111.23"/></g><g transform="rotate(5.07 867.08 208.88)"><use href="#hf-dashed" x="807.76" y="155.78" width="119.84" height="111.23"/></g><g transform="rotate(133.86 1444.87 222.03)"><use href="#hf-dashed" x="1385.55" y="168.93" width="119.84" height="111.23"/></g><g transform="rotate(-13.18 1017.41 244.96)"><use href="#hf-dashed" x="958.09" y="191.86" width="119.84" height="111.23"/></g></svg>