<svg width="848" height="339" viewBox="0 0 848 339" fill="none" xmlns="http://www.w3.org/2000/svg">
<path d="M80.5898 169.536C145.321 288.372 338.248 292.997 413.399 169.536C488.549 46.0746 682.923 50.7546 748.664 169.536" stroke="#E17100"/>
<rect x="0.5" y="89.4473" width="160.181" height="160.181" rx="80.0905" fill="#0B0F19" stroke="#141C2E"/>
<path d="M80.5898 169.536C145.321 288.372 338.248 292.997 413.399 169.536C488.549 46.0746 682.923 50.7546 748.664 169.536" stroke="#E17100"/>
<rect x="82.936" y="163.584" width="160.181" height="160.181" rx="20.5" fill="#0B0F19" stroke="#141C2E"/>
<path d="M202.888 235.973H163.893V251.932H186.299C185.939 254.19 185.13 256.412 183.946 258.438C182.589 260.76 180.911 262.527 179.192 263.873C174.041 267.904 168.036 268.728 163.865 268.728C153.33 268.728 144.329 261.774 140.844 252.324C140.703 251.981 140.61 251.626 140.496 251.276C139.726 248.871 139.305 246.324 139.305 243.676C139.305 240.921 139.761 238.284 140.592 235.792C143.869 225.968 153.073 218.63 163.873 218.63C166.045 218.63 168.137 218.894 170.121 219.421C174.655 220.624 177.861 222.995 179.826 224.871L191.683 213.011C184.471 206.257 175.069 202.164 163.853 202.164C154.887 202.164 146.61 205.017 139.826 209.839C134.325 213.75 129.813 218.985 126.769 225.066C123.937 230.704 122.386 236.952 122.386 243.67C122.386 250.388 123.939 256.701 126.771 262.287V262.325C129.762 268.255 134.137 273.361 139.454 277.254C144.098 280.654 152.427 285.183 163.853 285.183C170.424 285.183 176.248 283.973 181.384 281.706C185.089 280.07 188.372 277.936 191.344 275.194C195.271 271.571 198.347 267.089 200.446 261.933C202.545 256.776 203.668 250.946 203.668 244.624C203.668 241.68 203.379 238.69 202.888 235.972V235.973Z" stroke="#141C2E" stroke-dasharray="2 2"/>
<rect x="161.157" y="241.806" width="3.73966" height="3.73966" rx="1.86983" fill="#E17100" stroke="#141C2E"/>
<path d="M748.664 169.536C682.924 50.7546 488.55 46.0746 413.399 169.536C360.002 257.26 247.142 280.318 163.059 243.686" stroke="#E17100"/>
<rect x="194.568" y="178.246" width="160.181" height="160.181" rx="80.0905" fill="#0B0F19" stroke="#141C2E"/>
<path fill-rule="evenodd" clip-rule="evenodd" d="M274.604 270.035C271.381 270.035 268.49 268.122 267.257 265.16L252.392 229.667H261.092L274.654 262.135L288.203 229.667H296.904L281.95 265.173C280.711 268.122 277.825 270.035 274.604 270.035ZM293.999 286.994C290.79 286.994 287.912 285.094 286.666 282.158C285.414 279.196 286.062 275.816 288.325 273.521L315.397 246.099L318.778 254.074L293.993 279.133L329.321 278.936L332.702 286.912L294.006 287.007L293.999 286.994ZM219.994 278.923L216.613 286.899L216.626 286.886L255.322 286.975C258.519 286.975 261.41 285.081 262.656 282.139C263.914 279.183 263.259 275.79 260.997 273.503L233.924 246.08L230.543 254.056L255.322 279.12L219.994 278.923Z" stroke="#141C2E" stroke-dasharray="2 2"/>
<rect x="276.268" y="259.945" width="3.22011" height="3.22011" rx="1.61006" transform="rotate(180 276.268 259.945)" fill="#E17100" stroke="#141C2E" stroke-width="0.62633"/>
<path d="M748.663 169.536C682.923 50.7546 488.549 46.0746 413.398 169.536C381.852 221.362 329.551 250.618 274.692 258.33" stroke="#E17100"/>
<rect x="296.108" y="133.29" width="160.181" height="160.181" rx="20.5" fill="#0B0F19" stroke="#141C2E"/>
<path d="M427.023 181.59C425.917 181.05 425.488 182.075 424.846 182.596C424.625 182.767 424.44 182.987 424.255 183.181C422.643 184.906 420.764 186.03 418.316 185.895C414.722 185.697 411.66 186.826 408.95 189.572C408.377 186.183 406.462 184.165 403.554 182.866C402.028 182.192 400.483 181.518 399.422 180.053C398.677 179.014 398.474 177.85 398.099 176.709C397.864 176.021 397.625 175.316 396.834 175.194C395.967 175.059 395.633 175.778 395.295 176.385C393.94 178.857 393.416 181.59 393.461 184.349C393.583 190.56 396.207 195.504 401.418 199.028C402.014 199.432 402.168 199.837 401.978 200.425C401.621 201.639 401.201 202.812 400.826 204.021C400.592 204.798 400.239 204.969 399.409 204.628C396.598 203.424 394.046 201.696 391.89 199.536C388.187 195.954 384.831 191.999 380.65 188.902C379.681 188.186 378.687 187.505 377.669 186.862C373.406 182.718 378.234 179.316 379.349 178.916C380.519 178.498 379.756 177.046 375.976 177.064C372.205 177.082 368.75 178.345 364.352 180.026C363.706 180.282 362.88 180.713 362.338 180.61C358.224 179.841 354.018 179.696 349.861 180.178C341.705 181.091 335.184 184.942 330.397 191.527C324.64 199.437 323.289 208.421 324.947 217.801C326.685 227.675 331.73 235.863 339.488 242.259C347.526 248.883 356.783 252.133 367.346 251.508C373.759 251.144 380.907 250.281 388.959 243.468C390.991 244.474 393.122 244.874 396.667 245.18C399.39 245.436 402.014 245.045 404.046 244.627C407.225 243.953 407.004 241.014 405.853 240.466C396.527 236.124 398.573 237.89 396.713 236.466C401.454 230.857 408.598 225.032 411.389 206.169C411.61 204.668 411.421 203.729 411.389 202.511C411.376 201.778 411.543 201.486 412.383 201.401C414.727 201.157 417 200.459 419.075 199.347C425.117 196.048 427.506 190.632 428.084 184.133C428.17 183.145 428.066 182.111 427.018 181.594M378.735 212.205C378.735 211.855 378.875 211.519 379.124 211.271C379.373 211.023 379.711 210.884 380.063 210.884C380.415 210.884 380.752 211.023 381.001 211.271C381.25 211.519 381.39 211.855 381.39 212.205C381.391 212.38 381.358 212.554 381.291 212.716C381.224 212.878 381.126 213.025 381.001 213.148C380.877 213.272 380.729 213.37 380.567 213.437C380.404 213.503 380.229 213.537 380.054 213.535C379.878 213.537 379.704 213.504 379.542 213.438C379.38 213.371 379.232 213.273 379.109 213.149C378.986 213.025 378.889 212.877 378.823 212.715C378.758 212.553 378.727 212.38 378.73 212.205M374.4 240.066C365.359 232.964 360.979 230.627 359.168 230.726C357.474 230.821 357.777 232.758 358.152 234.021C358.54 235.266 359.046 236.124 359.759 237.216C360.252 237.944 360.59 239.023 359.272 239.823C356.359 241.634 351.297 239.221 351.053 239.104C345.169 235.643 340.242 231.059 336.769 224.803C333.423 218.771 331.477 212.308 331.156 205.41C331.066 203.738 331.562 203.149 333.215 202.848C335.398 202.433 337.634 202.376 339.835 202.682C349.061 204.03 356.914 208.156 363.499 214.681C367.256 218.407 370.101 222.848 373.027 227.189C376.143 231.805 379.494 236.196 383.761 239.791C385.265 241.054 386.471 242.016 387.618 242.726C384.149 243.108 378.36 243.194 374.4 240.066ZM392.188 219.113C391.321 219.463 390.458 219.769 389.632 219.805C388.387 219.844 387.167 219.455 386.177 218.704C384.994 217.715 384.145 217.162 383.784 215.423C383.665 214.577 383.689 213.717 383.856 212.879C384.163 211.464 383.82 210.56 382.826 209.733C382.013 209.059 380.984 208.879 379.846 208.879C379.455 208.862 379.075 208.745 378.744 208.538C378.27 208.3 377.881 207.711 378.252 206.987C378.487 206.649 378.769 206.345 379.087 206.084C380.623 205.207 382.402 205.5 384.046 206.151C385.567 206.776 386.719 207.918 388.376 209.531C390.07 211.482 390.372 212.025 391.339 213.486C392.097 214.637 392.797 215.814 393.271 217.162C393.556 217.998 393.181 218.69 392.188 219.113Z" stroke="#141C2E" stroke-linejoin="round" stroke-dasharray="2 2"/>
<rect x="377.808" y="214.992" width="3.22011" height="3.22011" rx="1.61006" transform="rotate(180 377.808 214.992)" fill="#E17100" stroke="#141C2E" stroke-width="0.62633"/>
<path d="M748.664 169.536C682.924 50.7546 488.55 46.0746 413.399 169.536C403.057 186.528 390.483 201.093 376.32 213.269" stroke="#E17100"/>
<rect x="371.203" y="45.0889" width="160.181" height="160.181" rx="80.0905" fill="#0B0F19" stroke="#141C2E"/>
<path fill-rule="evenodd" clip-rule="evenodd" d="M449.446 84.5247C433.011 84.3754 419.588 97.3212 419.434 113.449C419.285 129.581 432.465 142.762 448.9 142.911H459.223V131.966H449.446C439.179 132.085 430.764 124.006 430.644 113.923C430.52 103.847 438.753 95.5894 449.02 95.47H449.446C459.714 95.47 468.036 103.638 468.065 113.718V140.612C468.065 150.602 459.773 158.74 449.626 158.864C444.784 158.83 440.145 156.915 436.688 153.524L428.793 161.278C434.302 166.69 441.694 169.757 449.417 169.835H449.809C466.031 169.596 479.062 156.684 479.151 140.761V113.035C478.755 97.1634 465.574 84.5247 449.446 84.5247Z" stroke="#141C2E" stroke-linejoin="round" stroke-dasharray="2 2"/>
<rect x="452.903" y="126.789" width="3.22011" height="3.22011" rx="1.61006" transform="rotate(180 452.903 126.789)" fill="#E17100" stroke="#141C2E" stroke-width="0.62633"/>
<path d="M748.663 169.536C692.15 67.4256 540.576 49.6359 451.401 125.086" stroke="#E17100"/>
<rect x="473.876" y="0.5" width="160.181" height="160.181" rx="20.5" fill="#0B0F19" stroke="#141C2E"/>
<path d="M541.74 66.4383V56.5528C541.74 55.7202 542.053 55.0956 542.781 54.6799L562.656 43.2336C565.362 41.6728 568.588 40.9447 571.917 40.9447C584.404 40.9447 592.313 50.6223 592.313 60.9235C592.313 61.6518 592.313 62.4843 592.209 63.3169L571.605 51.246C570.356 50.518 569.107 50.518 567.859 51.246L541.74 66.4383ZM588.15 104.94V81.3183C588.15 79.8612 587.525 78.8206 586.277 78.0924L560.159 62.9001L568.691 58.0091C569.42 57.5933 570.044 57.5933 570.772 58.0091L590.648 69.4554C596.371 72.7856 600.221 79.8612 600.221 86.7285C600.221 94.6367 595.539 101.921 588.15 104.939V104.94ZM535.601 84.1285L527.068 79.134C526.34 78.7183 526.028 78.0935 526.028 77.2609V54.3685C526.028 43.2346 534.56 34.8054 546.111 34.8054C550.482 34.8054 554.54 36.2625 557.974 38.8639L537.475 50.7268C536.227 51.4548 535.602 52.4954 535.602 53.9527V84.1294L535.601 84.1285ZM553.967 94.7421L541.74 87.8745V73.307L553.967 66.4394L566.194 73.307V87.8745L553.967 94.7421ZM561.824 126.376C557.453 126.376 553.396 124.919 549.961 122.318L570.46 110.455C571.708 109.727 572.333 108.686 572.333 107.229V77.0521L580.97 82.0466C581.698 82.4623 582.011 83.0869 582.011 83.9197V106.812C582.011 117.946 573.373 126.375 561.824 126.375V126.376ZM537.162 103.171L517.286 91.7252C511.563 88.3947 507.713 81.3194 507.713 74.4518C507.713 66.4394 512.5 59.2595 519.887 56.2416V79.9666C519.887 81.4237 520.512 82.4643 521.76 83.1925L547.775 98.2803L539.243 103.171C538.515 103.587 537.89 103.587 537.162 103.171ZM536.018 120.237C524.259 120.237 515.622 111.392 515.622 100.466C515.622 99.6331 515.727 98.8005 515.83 97.968L536.329 109.831C537.578 110.559 538.827 110.559 540.075 109.831L566.194 94.7432V104.629C566.194 105.461 565.881 106.086 565.153 106.502L545.278 117.948C542.572 119.509 539.346 120.237 536.017 120.237H536.018ZM561.824 132.619C574.415 132.619 584.924 123.67 587.318 111.807C598.973 108.79 606.465 97.8635 606.465 86.7296C606.465 79.4452 603.343 72.3699 597.724 67.2709C598.244 65.0855 598.557 62.9001 598.557 60.7158C598.557 45.8358 586.486 34.7009 572.542 34.7009C569.733 34.7009 567.027 35.1166 564.322 36.0537C559.638 31.4749 553.187 28.5615 546.111 28.5615C533.52 28.5615 523.011 37.51 520.617 49.3729C508.962 52.3908 501.47 63.3169 501.47 74.4507C501.47 81.7351 504.592 88.8105 510.211 93.9095C509.691 96.0949 509.378 98.2803 509.378 100.465C509.378 115.345 521.449 126.48 535.393 126.48C538.202 126.48 540.908 126.064 543.613 125.127C548.296 129.705 554.747 132.619 561.824 132.619Z" stroke="#141C2E" stroke-linejoin="round" stroke-dasharray="2 2"/>
<rect x="555.576" y="82.1999" width="3.22011" height="3.22011" rx="1.61006" transform="rotate(180 555.576 82.1999)" fill="#E17100" stroke="#141C2E" stroke-width="0.62633"/>
<path d="M748.665 169.536C710.762 101.052 630.099 70.4971 554.179 80.5622" stroke="#E17100"/>
<rect x="585.328" y="15.3896" width="160.181" height="160.181" rx="80.0905" fill="#0B0F19" stroke="#141C2E"/>
<path d="M626.563 120.17C626.161 121.135 625.953 122.169 625.951 123.214C625.951 127.548 629.61 131.5 635.659 134.524C636.211 134.792 636.813 134.942 637.426 134.964C638.04 134.985 638.651 134.878 639.221 134.65C639.79 134.421 640.306 134.075 640.734 133.636C641.162 133.196 641.494 132.671 641.707 132.095L648.449 115.873C649.631 113.052 650.562 110.13 651.233 107.146C638.745 109.242 629.331 114.03 626.725 119.887L626.619 120.137L626.563 120.17ZM651.21 83.8184C650.538 80.8329 649.607 77.9118 648.426 75.0883L641.69 58.8654C641.476 58.2899 641.144 57.7655 640.715 57.3259C640.286 56.8863 639.77 56.5411 639.2 56.3125C638.63 56.0839 638.018 55.9768 637.405 55.9983C636.791 56.0197 636.188 56.1691 635.636 56.4369C629.587 59.461 625.928 63.4164 625.928 67.7502C625.928 68.7933 626.139 69.8265 626.54 70.7907V70.8236L626.646 71.077C629.311 76.9343 638.719 81.7189 651.21 83.8184ZM695.193 56.4402C701.241 59.461 704.9 63.4164 704.9 67.7469C704.885 68.7937 704.666 69.8275 704.255 70.7907L704.167 70.998C701.583 76.8949 692.146 81.7058 679.618 83.8184C680.29 80.8338 681.221 77.9117 682.402 75.0883L689.142 58.8654C689.355 58.2894 689.686 57.7644 690.115 57.3242C690.543 56.884 691.059 56.5384 691.629 56.3097C692.199 56.0809 692.811 55.9741 693.424 55.996C694.038 56.0179 694.641 56.1681 695.193 56.4369V56.4402ZM679.655 107.146C680.316 110.127 681.234 113.046 682.409 115.866L689.148 132.095C689.362 132.671 689.693 133.195 690.122 133.635C690.55 134.074 691.065 134.419 691.635 134.648C692.204 134.877 692.815 134.984 693.429 134.962C694.042 134.941 694.644 134.792 695.196 134.524C701.248 131.497 704.907 127.548 704.907 123.214C704.902 122.169 704.695 121.135 704.295 120.17L704.206 119.966C701.633 114.069 692.159 109.252 679.655 107.146ZM679.23 87.2703C688.098 85.9046 695.469 83.2458 700.554 79.7742L699.112 83.2392C695.881 91.0767 695.881 99.8743 699.112 107.712L700.544 111.16C695.453 107.689 688.082 105.056 679.224 103.674L678.993 103.641C674.5 102.959 669.961 102.62 665.416 102.628C660.885 102.621 656.36 102.957 651.878 103.638L651.645 103.671C642.783 105.03 635.412 107.692 630.321 111.164L631.759 107.708C634.991 99.871 634.991 91.0734 631.759 83.2359L630.321 79.7742C635.389 83.2623 642.76 85.9046 651.622 87.2703L651.855 87.3032C660.852 88.6425 669.997 88.6425 678.99 87.3032L679.224 87.2703H679.23Z" stroke="#141C2E" stroke-linejoin="round" stroke-dasharray="2 2"/>
<rect x="667.028" y="97.0905" width="3.22011" height="3.22011" rx="1.61006" transform="rotate(180 667.028 97.0905)" fill="#E17100" stroke="#141C2E" stroke-width="0.62633"/>
<path d="M748.663 169.537C729.728 135.323 700.119 110.576 665.762 95.6309" stroke="#E17100"/>
<rect x="668.102" y="88.5996" width="160.181" height="160.181" rx="20.5" fill="#0B0F19" stroke="#141C2E"/>
<path fill-rule="evenodd" clip-rule="evenodd" d="M750.982 119.476C752.796 122.661 754.601 125.856 756.402 129.056C756.475 129.183 756.58 129.29 756.708 129.364C756.835 129.437 756.98 129.476 757.127 129.476H782.759C783.562 129.476 784.246 129.983 784.818 130.985L791.531 142.85C792.408 144.406 792.639 145.057 791.642 146.715C790.441 148.7 789.273 150.703 788.133 152.716L786.439 155.754C785.949 156.659 785.409 157.047 786.254 158.118L798.498 179.526C799.292 180.916 799.01 181.807 798.299 183.081C796.282 186.705 794.227 190.301 792.136 193.884C791.402 195.14 790.511 195.615 788.996 195.592C785.409 195.518 781.831 195.546 778.253 195.666C778.176 195.67 778.102 195.693 778.037 195.734C777.971 195.774 777.917 195.83 777.879 195.897C773.751 203.211 769.588 210.506 765.391 217.78C764.611 219.133 763.636 219.456 762.044 219.461C757.441 219.475 752.801 219.479 748.115 219.47C747.679 219.469 747.25 219.353 746.873 219.133C746.496 218.913 746.184 218.598 745.968 218.219L739.805 207.494C739.769 207.424 739.714 207.366 739.646 207.326C739.578 207.285 739.5 207.266 739.422 207.268H715.793C714.477 207.407 713.24 207.263 712.076 206.843L704.676 194.055C704.457 193.676 704.341 193.247 704.339 192.81C704.338 192.372 704.45 191.942 704.667 191.562L710.239 181.774C710.318 181.636 710.36 181.479 710.36 181.32C710.36 181.16 710.318 181.003 710.239 180.865C707.336 175.839 704.451 170.804 701.583 165.759L697.935 159.318C697.197 157.887 697.137 157.028 698.374 154.863C700.521 151.11 702.654 147.361 704.777 143.617C705.387 142.536 706.181 142.075 707.474 142.07C711.458 142.053 715.442 142.052 719.426 142.066C719.527 142.065 719.626 142.037 719.712 141.986C719.799 141.935 719.871 141.862 719.92 141.775L732.875 119.176C733.071 118.832 733.355 118.546 733.697 118.346C734.039 118.147 734.427 118.041 734.823 118.04C737.242 118.035 739.685 118.04 742.132 118.012L746.827 117.906C748.401 117.892 750.169 118.054 750.982 119.476ZM735.137 121.336C735.088 121.336 735.041 121.349 734.999 121.373C734.956 121.398 734.921 121.433 734.897 121.475L721.665 144.628C721.602 144.737 721.511 144.828 721.402 144.891C721.292 144.954 721.168 144.987 721.042 144.988H707.811C707.552 144.988 707.487 145.103 707.621 145.33L734.445 192.217C734.56 192.411 734.505 192.504 734.288 192.508L721.384 192.578C721.195 192.571 721.009 192.618 720.845 192.713C720.682 192.807 720.549 192.946 720.46 193.113L714.366 203.778C714.163 204.138 714.269 204.323 714.68 204.323L741.07 204.359C741.282 204.359 741.439 204.452 741.55 204.641L748.027 215.971C748.24 216.345 748.452 216.349 748.669 215.971L771.78 175.528L775.395 169.147C775.417 169.108 775.449 169.075 775.488 169.052C775.527 169.03 775.572 169.017 775.617 169.017C775.662 169.017 775.706 169.03 775.745 169.052C775.784 169.075 775.816 169.108 775.839 169.147L782.413 180.828C782.462 180.915 782.534 180.988 782.621 181.038C782.708 181.089 782.806 181.115 782.907 181.114L795.663 181.022C795.696 181.022 795.728 181.014 795.756 180.997C795.785 180.981 795.808 180.958 795.824 180.929C795.84 180.901 795.848 180.869 795.848 180.837C795.848 180.805 795.84 180.773 795.824 180.745L782.436 157.264C782.388 157.185 782.362 157.095 782.362 157.003C782.362 156.911 782.388 156.821 782.436 156.742L783.789 154.402L788.959 145.274C789.07 145.085 789.015 144.988 788.798 144.988H735.266C734.994 144.988 734.929 144.868 735.068 144.632L741.688 133.067C741.738 132.989 741.764 132.897 741.764 132.804C741.764 132.711 741.738 132.62 741.688 132.541L735.382 121.479C735.358 121.436 735.322 121.399 735.279 121.374C735.236 121.349 735.187 121.336 735.137 121.336ZM764.177 158.363C764.389 158.363 764.444 158.455 764.334 158.64L760.492 165.403L748.429 186.571C748.406 186.612 748.373 186.647 748.332 186.67C748.291 186.694 748.245 186.706 748.198 186.705C748.151 186.705 748.105 186.692 748.065 186.669C748.024 186.645 747.991 186.612 747.967 186.571L732.025 158.723C731.933 158.566 731.979 158.483 732.155 158.473L733.152 158.418L764.186 158.363H764.177Z" stroke="#141C2E" stroke-dasharray="2 2"/>
<rect x="749.803" y="170.3" width="3.22011" height="3.22011" rx="1.61006" transform="rotate(180 749.803 170.3)" fill="#E17100" stroke="#141C2E" stroke-width="0.62633"/>
<path d="M847.273 221.132C804.446 221.132 769.723 207.108 748.237 168.771" stroke="#E17100"/>
</svg>
