<svg preserveAspectRatio="none" width="100%" height="100%" overflow="visible" style="display: block;" viewBox="0 0 70.086 88.5086" fill="none" xmlns="http://www.w3.org/2000/svg">
<g id="dataset">
<path id="Vector" d="M35.0428 18.9229C54.1201 18.9229 69.5858 14.7988 69.5858 9.71144C69.5858 4.62411 54.1201 0.500005 35.0428 0.5C15.9653 0.5 0.5 4.62411 0.5 9.71144C0.499995 14.7988 15.9653 18.9229 35.0428 18.9229Z" fill="var(--fill-0, white)" stroke="var(--stroke-0, #E5E7EC)"/>
<g id="Mask group">
<mask id="mask0_0_4" style="mask-type:alpha" maskUnits="userSpaceOnUse" x="0" y="41" width="71" height="16">
<g id="Group">
<path id="Vector_2" d="M1.58836 41.952C0.87797 42.688 0.500098 45.7623 0.500098 46.5577C0.500098 51.6451 15.9654 55.7689 35.0429 55.7689C54.1202 55.7689 69.5859 51.6451 69.5859 46.5577C69.5859 45.7623 69.208 42.688 68.4974 41.952C64.6627 45.9249 51.1387 48.8603 35.0429 48.8603C18.9474 48.8603 5.42297 45.9249 1.58836 41.952Z" fill="var(--fill-0, white)" stroke="var(--stroke-0, white)"/>
</g>
</mask>
<g mask="url(#mask0_0_4)">
<path id="Vector_3" d="M1.58834 41.9519C0.877956 42.6879 0.500084 45.7622 0.500084 46.5576C0.500084 51.645 15.9654 55.7688 35.0429 55.7688C54.1202 55.7688 69.5859 51.645 69.5859 46.5576C69.5859 45.7622 69.208 42.6879 68.4974 41.9519C64.6627 45.9248 51.1387 48.8603 35.0429 48.8603C18.9474 48.8603 5.42296 45.9248 1.58834 41.9519Z" fill="var(--fill-0, white)"/>
<g id="Group_2">
<path id="Vector_4" d="M6.20012 33.7393L-10.361 62.424M8.73636 33.7392L-7.82477 62.424M11.2725 33.7392L-5.28858 62.424M13.8087 33.7392L-2.7524 62.424M16.3449 33.7392L-0.21621 62.424M18.8811 33.7392L2.31996 62.424M21.4173 33.7392L4.85614 62.424M23.9535 33.7392L7.39233 62.424M26.4897 33.7392L9.92852 62.424M29.0259 33.7392L12.4647 62.424M31.562 33.7392L15.0009 62.424M34.0982 33.7392L17.5371 62.424M36.6344 33.7392L20.0733 62.424M39.1706 33.7392L22.6095 62.424M41.7068 33.7392L25.1456 62.424M44.243 33.7392L27.6818 62.424M46.7794 33.7392L30.218 62.424M49.3156 33.7392L32.7542 62.424M51.8518 33.7392L35.2904 62.424M54.388 33.7392L37.8266 62.424M56.9242 33.7392L40.3628 62.424M59.4604 33.7392L42.899 62.424M61.9965 33.7392L45.4351 62.424M64.5327 33.7392L47.9714 62.424M67.0689 33.7392L50.5076 62.424M69.6051 33.7392L53.0438 62.424M72.1413 33.7392L55.58 62.424M74.6775 33.7392L58.1162 62.424M77.2137 33.7392L60.6524 62.424M79.7499 33.7392L63.1886 62.424" stroke="var(--stroke-0, #E5E7EC)"/>
</g>
</g>
</g>
<path id="Vector_5" d="M35.043 55.7686C54.1203 55.7686 69.586 51.6447 69.586 46.5574V78.7972C69.586 83.8848 54.1203 88.0086 35.043 88.0086C15.9655 88.0086 0.500168 83.8848 0.500168 78.7972L0.500173 46.5574C0.500173 51.6447 15.9655 55.7686 35.043 55.7686Z" fill="var(--fill-0, white)" stroke="var(--stroke-0, #E5E7EC)"/>
<path id="Vector_6" d="M35.0429 18.9227C54.1202 18.9227 69.5859 14.7986 69.5859 9.71125V39.6484C69.5859 44.7358 54.1202 48.8599 35.0429 48.8599C15.9654 48.8599 0.50005 44.7358 0.50005 39.6484L0.500054 9.71125C0.500054 14.7985 15.9654 18.9227 35.0429 18.9227Z" fill="var(--fill-0, white)" stroke="var(--stroke-0, #E5E7EC)"/>
</g>
</svg>
