<svg preserveAspectRatio="none" width="100%" height="100%" overflow="visible" style="display: block;" viewBox="0 0 122.972 98.4707" fill="none" xmlns="http://www.w3.org/2000/svg">
<g id="enterprise">
<path id="Vector" d="M31.0882 6.94082C36.3052 3.08392 42.5402 0.844293 49.019 0.5H49.1238H106.139C118.297 0.5 125.214 10.3519 121.441 22.1951L103.938 76.2756C101.635 82.4017 97.5891 87.7199 92.3001 91.5749C87.0111 95.4299 80.7098 97.6532 74.1727 97.9707H17.1576C4.99997 97.9707 -2.33653 88.1188 1.54133 76.2756L19.673 22.1951C21.9018 16.102 25.8711 10.7977 31.0882 6.94082Z" fill="var(--fill-0, white)" stroke="var(--stroke-0, #E5E7EC)"/>
<g id="Mask group">
<mask id="mask0_0_4" style="mask-type:alpha" maskUnits="userSpaceOnUse" x="35" y="22" width="55" height="54">
<path id="Vector_2" d="M72.4957 75.1216H35.0796L53.316 22.0891H89.1601L85.387 33.6179H64.4256L61.2814 42.3169H79.7274L75.5352 53.8457H57.1939L54.2593 63.3832H76.2688L72.4957 75.1216Z" fill="var(--fill-0, #E5E7EC)"/>
</mask>
<g mask="url(#mask0_0_4)">
<path id="Vector_3" d="M111.604 26.6598L40.549 124.142M110.488 24.5162L39.4324 121.999M109.371 22.3721L38.3159 119.855M108.254 20.2285L37.1993 117.712M107.138 18.0849L36.0827 115.568M106.021 15.9413L34.9662 113.424M104.905 13.7978L33.8496 111.281M103.788 11.6542L32.7331 109.137M102.672 9.51061L31.6165 106.994M101.555 7.36703L30.5 104.85M100.438 5.22345L29.3834 102.707M99.3219 3.07987L28.2669 100.563M98.2054 0.936296L27.1503 98.4195M97.0888 -1.20728L26.0338 96.2759M95.9723 -3.35086L24.9172 94.1323M94.8557 -5.49444L23.8007 91.9887M93.7391 -7.63801L22.684 89.845M92.6226 -9.78159L21.5675 87.7014M91.506 -11.9252L20.4509 85.5578M90.3895 -14.0687L19.3344 83.4143M89.2729 -16.2123L18.2178 81.2707M88.1564 -18.3559L17.1012 79.1271M87.0398 -20.4994L15.9847 76.9835M85.9232 -22.643L14.8681 74.8399M84.8067 -24.7866L13.7516 72.6964M83.6901 -26.9302L12.635 70.5528" stroke="var(--stroke-0, #E5E7EC)"/>
</g>
</g>
</g>
</svg>
