<svg width="848" height="339" viewBox="0 0 848 339" fill="none" xmlns="http://www.w3.org/2000/svg">
<path d="M80.5898 169.536C145.321 288.372 338.248 292.997 413.399 169.536C488.549 46.0746 682.923 50.7546 748.664 169.536" stroke="white"/>
<rect x="0.5" y="89.4473" width="160.181" height="160.181" rx="80.0905" fill="#0B0F19" stroke="#141C2E"/>
<path d="M80.5898 169.536C145.321 288.372 338.248 292.997 413.399 169.536C488.549 46.0746 682.923 50.7546 748.664 169.536" stroke="white"/>
<rect x="82.936" y="163.584" width="160.181" height="160.181" rx="20.5" fill="#0B0F19"/>
<rect x="82.936" y="163.584" width="160.181" height="160.181" rx="20.5" fill="url(#paint0_radial_362_50493)" fill-opacity="0.1"/>
<rect x="82.936" y="163.584" width="160.181" height="160.181" rx="20.5" stroke="#141C2E"/>
<mask id="mask0_362_50493" style="mask-type:luminance" maskUnits="userSpaceOnUse" x="122" y="202" width="82" height="84">
<path d="M202.888 235.973H163.893V251.932H186.299C185.939 254.19 185.13 256.412 183.946 258.438C182.589 260.76 180.911 262.527 179.192 263.873C174.041 267.904 168.036 268.728 163.865 268.728C153.33 268.728 144.329 261.774 140.844 252.324C140.703 251.981 140.61 251.626 140.496 251.276C139.726 248.871 139.305 246.324 139.305 243.676C139.305 240.921 139.761 238.284 140.592 235.792C143.869 225.968 153.073 218.63 163.873 218.63C166.045 218.63 168.137 218.894 170.121 219.421C174.655 220.624 177.861 222.995 179.826 224.871L191.683 213.011C184.471 206.257 175.069 202.164 163.853 202.164C154.887 202.164 146.61 205.017 139.826 209.839C134.325 213.75 129.813 218.985 126.769 225.066C123.937 230.704 122.386 236.952 122.386 243.67C122.386 250.388 123.939 256.701 126.771 262.287V262.325C129.762 268.255 134.137 273.361 139.454 277.254C144.098 280.654 152.427 285.183 163.853 285.183C170.424 285.183 176.248 283.973 181.384 281.706C185.089 280.07 188.372 277.936 191.344 275.194C195.271 271.571 198.347 267.089 200.446 261.933C202.545 256.776 203.668 250.946 203.668 244.624C203.668 241.68 203.379 238.69 202.888 235.972V235.973Z" fill="white"/>
</mask>
<g mask="url(#mask0_362_50493)">
<g filter="url(#filter0_f_362_50493)">
<path d="M121.788 243.952C121.831 250.564 123.675 257.386 126.468 262.894V262.931C128.485 266.931 131.243 270.09 134.383 273.221L153.352 266.151C149.763 264.29 149.215 263.149 146.643 261.067C144.014 258.359 142.054 255.251 140.834 251.607H140.785L140.834 251.569C140.032 249.162 139.952 246.607 139.923 243.952H121.788Z" fill="url(#paint1_radial_362_50493)"/>
</g>
<g filter="url(#filter1_f_362_50493)">
<path d="M163.893 201.862C162.018 208.59 162.735 215.129 163.893 218.934C166.058 218.935 168.144 219.199 170.121 219.724C174.655 220.928 177.861 223.299 179.826 225.174L191.987 213.011C184.783 206.265 176.113 201.873 163.893 201.862Z" fill="url(#paint2_radial_362_50493)"/>
</g>
<g filter="url(#filter2_f_362_50493)">
<path d="M163.852 201.809C154.656 201.808 146.166 204.735 139.208 209.681C136.625 211.517 134.254 213.638 132.143 215.997C131.59 221.296 136.283 227.809 145.576 227.755C150.085 222.398 156.754 218.932 164.176 218.932C164.183 218.932 164.189 218.933 164.196 218.933L163.893 201.81C163.879 201.81 163.866 201.809 163.852 201.809Z" fill="url(#paint3_radial_362_50493)"/>
</g>
<g filter="url(#filter3_f_362_50493)">
<path d="M194.205 245.87L185.997 251.629C185.636 253.888 184.827 256.109 183.643 258.135C182.286 260.457 180.608 262.224 178.889 263.57C173.748 267.593 167.759 268.421 163.59 268.424C159.28 275.921 158.525 279.676 163.893 285.726C170.535 285.721 176.424 284.497 181.619 282.203C185.373 280.546 188.7 278.383 191.712 275.604C195.692 271.932 198.809 267.39 200.937 262.165C203.064 256.939 204.202 251.031 204.202 244.624L194.205 245.87Z" fill="url(#paint4_radial_362_50493)"/>
</g>
<g filter="url(#filter4_f_362_50493)">
<path d="M163.286 235.366V252.538H202.778C203.125 250.186 204.274 247.143 204.274 244.624C204.274 241.68 203.984 238.084 203.493 235.366H163.286Z" fill="#3086FF"/>
</g>
<g filter="url(#filter5_f_362_50493)">
<path d="M132.332 215.392C129.895 218.115 127.813 221.163 126.162 224.46C123.33 230.098 121.779 236.952 121.779 243.67C121.779 243.765 121.787 243.858 121.788 243.952C123.042 246.408 139.113 245.938 139.923 243.952C139.922 243.859 139.911 243.769 139.911 243.676C139.911 240.921 140.367 238.89 141.198 236.399C142.223 233.326 143.827 230.497 145.879 228.059C146.344 227.452 147.585 226.148 147.947 225.366C148.085 225.068 147.697 224.901 147.675 224.796C147.651 224.679 147.13 224.773 147.014 224.686C146.643 224.409 145.91 224.264 145.465 224.135C144.513 223.86 142.936 223.253 142.06 222.624C139.292 220.635 134.971 218.26 132.332 215.392Z" fill="url(#paint5_radial_362_50493)"/>
</g>
<g filter="url(#filter6_f_362_50493)">
<path d="M142.12 224.808C148.541 228.78 150.387 222.803 154.656 220.932L147.23 205.204C144.499 206.377 141.918 207.834 139.523 209.536C135.947 212.078 132.789 215.18 130.18 218.711L142.12 224.808Z" fill="url(#paint6_radial_362_50493)"/>
</g>
<g filter="url(#filter7_f_362_50493)">
<path d="M144.733 264.936C136.114 268.114 134.765 268.228 133.972 273.684C135.488 275.195 137.117 276.592 138.848 277.86C143.492 281.26 152.427 285.789 163.853 285.789C163.867 285.789 163.88 285.788 163.893 285.788V268.121C163.884 268.121 163.874 268.121 163.866 268.121C159.587 268.121 156.168 266.974 152.662 264.977C151.798 264.485 150.23 265.807 149.432 265.216C148.333 264.401 145.687 265.918 144.733 264.936Z" fill="url(#paint7_radial_362_50493)"/>
</g>
<g opacity="0.5" filter="url(#filter8_f_362_50493)">
<path d="M158.845 267.564V285.482C160.444 285.673 162.108 285.79 163.853 285.79C165.603 285.79 167.296 285.698 168.941 285.529V267.685C167.097 268.007 165.361 268.122 163.866 268.122C162.143 268.122 160.468 267.917 158.845 267.564Z" fill="url(#paint8_linear_362_50493)"/>
</g>
</g>
<rect x="161.157" y="241.806" width="3.73966" height="3.73966" rx="1.86983" fill="white" stroke="#141C2E"/>
<path d="M748.664 169.536C682.924 50.7546 488.55 46.0746 413.4 169.536C360.002 257.26 247.143 280.318 163.06 243.686" stroke="white"/>
<rect x="194.567" y="178.246" width="160.181" height="160.181" rx="80.0905" fill="#0B0F19"/>
<rect x="194.567" y="178.246" width="160.181" height="160.181" rx="80.0905" fill="url(#paint9_radial_362_50493)" fill-opacity="0.2"/>
<rect x="194.567" y="178.246" width="160.181" height="160.181" rx="80.0905" stroke="#141C2E"/>
<path fill-rule="evenodd" clip-rule="evenodd" d="M274.604 270.035C271.382 270.035 268.49 268.122 267.257 265.16L252.393 229.667H261.093L274.655 262.135L288.204 229.667H296.904L281.95 265.173C280.711 268.122 277.826 270.035 274.604 270.035ZM294 286.994C290.79 286.994 287.912 285.094 286.666 282.158C285.414 279.196 286.062 275.816 288.325 273.521L315.398 246.099L318.779 254.074L293.994 279.133L329.322 278.936L332.703 286.912L294.006 287.007L294 286.994ZM219.994 278.923L216.613 286.899L216.626 286.886L255.322 286.975C258.519 286.975 261.41 285.081 262.656 282.139C263.915 279.183 263.26 275.79 260.998 273.503L233.925 246.08L230.544 254.056L255.322 279.12L219.994 278.923Z" fill="#5019C5"/>
<rect x="276.267" y="259.945" width="3.22011" height="3.22011" rx="1.61006" transform="rotate(180 276.267 259.945)" fill="white" stroke="#141C2E" stroke-width="0.62633"/>
<path d="M748.664 169.536C682.923 50.7546 488.549 46.0746 413.399 169.536C381.852 221.362 329.552 250.618 274.692 258.33" stroke="white"/>
<rect x="296.107" y="133.29" width="160.181" height="160.181" rx="20.5" fill="#0B0F19"/>
<rect x="296.107" y="133.29" width="160.181" height="160.181" rx="20.5" fill="url(#paint10_radial_362_50493)" fill-opacity="0.2"/>
<rect x="296.107" y="133.29" width="160.181" height="160.181" rx="20.5" stroke="#141C2E"/>
<path d="M427.022 181.59C425.916 181.05 425.487 182.075 424.846 182.596C424.625 182.767 424.439 182.987 424.254 183.181C422.642 184.906 420.763 186.03 418.316 185.895C414.721 185.697 411.66 186.826 408.95 189.572C408.376 186.183 406.462 184.165 403.554 182.866C402.027 182.192 400.483 181.518 399.422 180.053C398.676 179.014 398.473 177.85 398.098 176.709C397.864 176.021 397.624 175.316 396.834 175.194C395.967 175.059 395.633 175.778 395.294 176.385C393.939 178.857 393.416 181.59 393.461 184.349C393.583 190.56 396.206 195.504 401.418 199.028C402.014 199.432 402.167 199.837 401.978 200.425C401.621 201.639 401.201 202.812 400.826 204.021C400.591 204.798 400.239 204.969 399.408 204.628C396.598 203.424 394.045 201.696 391.889 199.536C388.186 195.954 384.831 191.999 380.649 188.902C379.681 188.186 378.687 187.505 377.669 186.862C373.406 182.718 378.233 179.316 379.349 178.916C380.518 178.498 379.755 177.046 375.975 177.064C372.205 177.082 368.75 178.345 364.352 180.026C363.706 180.282 362.879 180.713 362.337 180.61C358.224 179.841 354.017 179.696 349.86 180.178C341.705 181.091 335.184 184.942 330.397 191.527C324.639 199.437 323.289 208.421 324.946 217.801C326.685 227.675 331.729 235.863 339.487 242.259C347.525 248.883 356.783 252.133 367.346 251.508C373.758 251.144 380.907 250.281 388.958 243.468C390.99 244.474 393.122 244.874 396.667 245.18C399.39 245.436 402.014 245.045 404.046 244.627C407.225 243.953 407.004 241.014 405.852 240.466C396.527 236.124 398.573 237.89 396.712 236.466C401.454 230.857 408.598 225.032 411.389 206.169C411.61 204.668 411.42 203.729 411.389 202.511C411.375 201.778 411.542 201.486 412.382 201.401C414.726 201.157 417 200.459 419.075 199.347C425.117 196.048 427.506 190.632 428.084 184.133C428.169 183.145 428.066 182.111 427.018 181.594M374.399 240.066C365.359 232.964 360.978 230.627 359.167 230.726C357.474 230.821 357.776 232.758 358.151 234.021C358.54 235.266 359.045 236.124 359.759 237.216C360.251 237.944 360.59 239.023 359.271 239.823C356.358 241.634 351.296 239.221 351.052 239.104C345.168 235.643 340.241 231.059 336.769 224.803C333.422 218.771 331.476 212.308 331.156 205.41C331.065 203.738 331.562 203.149 333.215 202.848C335.398 202.433 337.634 202.376 339.835 202.682C349.061 204.03 356.914 208.156 363.498 214.681C367.255 218.407 370.1 222.848 373.026 227.189C376.142 231.805 379.493 236.196 383.761 239.791C385.264 241.054 386.47 242.016 387.617 242.726C384.149 243.108 378.36 243.194 374.399 240.066ZM378.734 212.205C378.734 211.855 378.874 211.519 379.123 211.271C379.372 211.023 379.71 210.884 380.062 210.884C380.414 210.884 380.752 211.023 381.001 211.271C381.25 211.519 381.39 211.855 381.39 212.205C381.391 212.38 381.357 212.554 381.29 212.716C381.224 212.878 381.125 213.025 381.001 213.148C380.877 213.272 380.729 213.37 380.566 213.437C380.403 213.503 380.229 213.537 380.053 213.535C379.878 213.537 379.704 213.504 379.541 213.438C379.379 213.371 379.232 213.273 379.109 213.149C378.985 213.025 378.888 212.877 378.823 212.715C378.758 212.553 378.726 212.38 378.73 212.205M392.187 219.113C391.32 219.463 390.458 219.769 389.631 219.805C388.387 219.844 387.167 219.455 386.177 218.704C384.993 217.715 384.144 217.162 383.783 215.423C383.664 214.577 383.689 213.717 383.855 212.879C384.163 211.464 383.819 210.56 382.826 209.733C382.013 209.059 380.983 208.879 379.845 208.879C379.455 208.862 379.075 208.745 378.744 208.538C378.269 208.3 377.881 207.711 378.251 206.987C378.487 206.649 378.768 206.345 379.087 206.084C380.622 205.207 382.401 205.5 384.045 206.151C385.567 206.776 386.719 207.918 388.376 209.531C390.069 211.482 390.372 212.025 391.338 213.486C392.097 214.637 392.797 215.814 393.271 217.162C393.555 217.998 393.181 218.69 392.187 219.113Z" fill="#4D6BFE"/>
<rect x="377.808" y="214.992" width="3.22011" height="3.22011" rx="1.61006" transform="rotate(180 377.808 214.992)" fill="white" stroke="#141C2E" stroke-width="0.62633"/>
<path d="M748.664 169.536C682.923 50.7546 488.549 46.0746 413.399 169.536C403.056 186.528 390.483 201.093 376.319 213.269" stroke="white"/>
<rect x="371.202" y="45.0889" width="160.181" height="160.181" rx="80.0905" fill="#0B0F19"/>
<rect x="371.202" y="45.0889" width="160.181" height="160.181" rx="80.0905" fill="url(#paint11_radial_362_50493)" fill-opacity="0.2"/>
<rect x="371.202" y="45.0889" width="160.181" height="160.181" rx="80.0905" stroke="#141C2E"/>
<path fill-rule="evenodd" clip-rule="evenodd" d="M449.447 84.5247C433.012 84.3754 419.588 97.3212 419.435 113.449C419.286 129.581 432.466 142.762 448.901 142.911H459.224V131.966H449.447C439.18 132.085 430.764 124.006 430.645 113.923C430.521 103.847 438.753 95.5894 449.02 95.47H449.447C459.714 95.47 468.036 103.638 468.066 113.718V140.612C468.066 150.602 459.774 158.74 449.626 158.864C444.784 158.83 440.145 156.915 436.689 153.524L428.793 161.278C434.303 166.69 441.695 169.757 449.417 169.835H449.81C466.031 169.596 479.062 156.684 479.152 140.761V113.035C478.755 97.1634 465.575 84.5247 449.447 84.5247Z" fill="#F43E01"/>
<rect x="452.903" y="126.789" width="3.22011" height="3.22011" rx="1.61006" transform="rotate(180 452.903 126.789)" fill="white" stroke="#141C2E" stroke-width="0.62633"/>
<path d="M748.664 169.536C692.15 67.4256 540.576 49.6359 451.401 125.086" stroke="white"/>
<rect x="473.877" y="0.5" width="160.181" height="160.181" rx="20.5" fill="#0B0F19"/>
<rect x="473.877" y="0.5" width="160.181" height="160.181" rx="20.5" fill="url(#paint12_radial_362_50493)" fill-opacity="0.1"/>
<rect x="473.877" y="0.5" width="160.181" height="160.181" rx="20.5" stroke="#141C2E"/>
<path d="M541.74 66.4383V56.5528C541.74 55.7202 542.052 55.0956 542.78 54.6799L562.656 43.2336C565.361 41.6728 568.587 40.9447 571.917 40.9447C584.403 40.9447 592.312 50.6223 592.312 60.9235C592.312 61.6518 592.312 62.4843 592.208 63.3169L571.604 51.246C570.356 50.518 569.107 50.518 567.858 51.246L541.74 66.4383ZM588.15 104.94V81.3183C588.15 79.8612 587.525 78.8206 586.276 78.0924L560.158 62.9001L568.691 58.0091C569.419 57.5933 570.044 57.5933 570.772 58.0091L590.647 69.4554C596.371 72.7856 600.22 79.8612 600.22 86.7285C600.22 94.6367 595.538 101.921 588.15 104.939V104.94ZM535.601 84.1285L527.068 79.134C526.34 78.7183 526.027 78.0935 526.027 77.2609V54.3685C526.027 43.2346 534.56 34.8054 546.111 34.8054C550.482 34.8054 554.539 36.2625 557.974 38.8639L537.474 50.7268C536.226 51.4548 535.602 52.4954 535.602 53.9527V84.1294L535.601 84.1285ZM553.967 94.7421L541.74 87.8745V73.307L553.967 66.4394L566.193 73.307V87.8745L553.967 94.7421ZM561.823 126.376C557.452 126.376 553.395 124.919 549.96 122.318L570.459 110.455C571.708 109.727 572.332 108.686 572.332 107.229V77.0521L580.97 82.0466C581.698 82.4623 582.01 83.0869 582.01 83.9197V106.812C582.01 117.946 573.373 126.375 561.823 126.375V126.376ZM537.161 103.171L517.286 91.7252C511.562 88.3947 507.713 81.3194 507.713 74.4518C507.713 66.4394 512.499 59.2595 519.887 56.2416V79.9666C519.887 81.4237 520.512 82.4643 521.76 83.1925L547.775 98.2803L539.242 103.171C538.514 103.587 537.889 103.587 537.161 103.171ZM536.017 120.237C524.259 120.237 515.622 111.392 515.622 100.466C515.622 99.6331 515.726 98.8005 515.829 97.968L536.329 109.831C537.577 110.559 538.826 110.559 540.075 109.831L566.193 94.7432V104.629C566.193 105.461 565.881 106.086 565.153 106.502L545.277 117.948C542.572 119.509 539.346 120.237 536.016 120.237H536.017ZM561.823 132.619C574.414 132.619 584.924 123.67 587.318 111.807C598.972 108.79 606.464 97.8635 606.464 86.7296C606.464 79.4452 603.343 72.3699 597.724 67.2709C598.244 65.0855 598.556 62.9001 598.556 60.7158C598.556 45.8358 586.485 34.7009 572.541 34.7009C569.732 34.7009 567.027 35.1166 564.321 36.0537C559.638 31.4749 553.186 28.5615 546.111 28.5615C533.52 28.5615 523.01 37.51 520.616 49.3729C508.962 52.3908 501.47 63.3169 501.47 74.4507C501.47 81.7351 504.591 88.8105 510.21 93.9095C509.69 96.0949 509.378 98.2803 509.378 100.465C509.378 115.345 521.449 126.48 535.393 126.48C538.202 126.48 540.907 126.064 543.613 125.127C548.295 129.705 554.747 132.619 561.823 132.619Z" fill="white"/>
<rect x="555.577" y="82.1999" width="3.22011" height="3.22011" rx="1.61006" transform="rotate(180 555.577 82.1999)" fill="white" stroke="#141C2E" stroke-width="0.62633"/>
<path d="M748.664 169.536C710.761 101.052 630.098 70.4971 554.179 80.5622" stroke="white"/>
<rect x="585.327" y="15.3896" width="160.181" height="160.181" rx="80.0905" fill="#0B0F19"/>
<rect x="585.327" y="15.3896" width="160.181" height="160.181" rx="80.0905" fill="url(#paint13_radial_362_50493)" fill-opacity="0.2"/>
<rect x="585.327" y="15.3896" width="160.181" height="160.181" rx="80.0905" stroke="#141C2E"/>
<path d="M626.564 120.17C626.161 121.135 625.953 122.169 625.952 123.214C625.952 127.548 629.611 131.5 635.659 134.524C636.211 134.792 636.813 134.942 637.427 134.964C638.04 134.985 638.652 134.878 639.221 134.65C639.791 134.421 640.306 134.075 640.735 133.636C641.163 133.196 641.494 132.671 641.707 132.095L648.45 115.873C649.631 113.052 650.562 110.13 651.234 107.146C638.746 109.242 629.331 114.03 626.725 119.887L626.62 120.137L626.564 120.17ZM651.211 83.8184C650.539 80.8329 649.607 77.9118 648.427 75.0883L641.691 58.8654C641.476 58.2899 641.144 57.7655 640.715 57.3259C640.286 56.8863 639.77 56.5411 639.2 56.3125C638.63 56.0839 638.019 55.9768 637.405 55.9983C636.791 56.0197 636.189 56.1691 635.636 56.4369C629.588 59.461 625.929 63.4164 625.929 67.7502C625.929 68.7933 626.139 69.8265 626.541 70.7907V70.8236L626.646 71.077C629.311 76.9343 638.719 81.7189 651.211 83.8184ZM695.194 56.4402C701.242 59.461 704.901 63.4164 704.901 67.7469C704.885 68.7937 704.666 69.8275 704.256 70.7907L704.167 70.998C701.584 76.8949 692.146 81.7058 679.619 83.8184C680.29 80.8338 681.221 77.9117 682.403 75.0883L689.142 58.8654C689.355 58.2894 689.687 57.7644 690.115 57.3242C690.544 56.884 691.059 56.5384 691.629 56.3097C692.199 56.0809 692.811 55.9741 693.425 55.996C694.039 56.0179 694.641 56.1681 695.194 56.4369V56.4402ZM679.655 107.146C680.317 110.127 681.235 113.046 682.409 115.866L689.149 132.095C689.362 132.671 689.694 133.195 690.122 133.635C690.55 134.074 691.066 134.419 691.635 134.648C692.205 134.877 692.816 134.984 693.429 134.962C694.043 134.941 694.645 134.792 695.197 134.524C701.248 131.497 704.908 127.548 704.908 123.214C704.903 122.169 704.695 121.135 704.295 120.17L704.207 119.966C701.633 114.069 692.16 109.252 679.655 107.146ZM679.231 87.2703C688.099 85.9046 695.47 83.2458 700.554 79.7742L699.113 83.2392C695.881 91.0767 695.881 99.8743 699.113 107.712L700.544 111.16C695.453 107.689 688.082 105.056 679.224 103.674L678.994 103.641C674.5 102.959 669.961 102.62 665.416 102.628C660.885 102.621 656.361 102.957 651.879 103.638L651.645 103.671C642.783 105.03 635.412 107.692 630.322 111.164L631.76 107.708C634.991 99.871 634.991 91.0734 631.76 83.2359L630.322 79.7742C635.389 83.2623 642.76 85.9046 651.622 87.2703L651.856 87.3032C660.852 88.6425 669.997 88.6425 678.99 87.3032L679.224 87.2703H679.231Z" fill="#594CE9"/>
<rect x="667.028" y="97.0905" width="3.22011" height="3.22011" rx="1.61006" transform="rotate(180 667.028 97.0905)" fill="white" stroke="#141C2E" stroke-width="0.62633"/>
<path d="M748.663 169.538C729.727 135.324 700.119 110.577 665.762 95.6318" stroke="white"/>
<rect x="668.102" y="88.5996" width="160.181" height="160.181" rx="20.5" fill="#0B0F19"/>
<rect x="668.102" y="88.5996" width="160.181" height="160.181" rx="20.5" fill="url(#paint14_radial_362_50493)" fill-opacity="0.2"/>
<rect x="668.102" y="88.5996" width="160.181" height="160.181" rx="20.5" stroke="#141C2E"/>
<path fill-rule="evenodd" clip-rule="evenodd" d="M750.982 119.476C752.797 122.661 754.602 125.856 756.402 129.056C756.475 129.183 756.581 129.29 756.708 129.364C756.835 129.437 756.98 129.476 757.127 129.476H782.76C783.563 129.476 784.246 129.983 784.819 130.985L791.531 142.85C792.409 144.406 792.639 145.057 791.642 146.715C790.442 148.7 789.274 150.703 788.133 152.716L786.439 155.754C785.95 156.659 785.41 157.047 786.254 158.118L798.498 179.526C799.292 180.916 799.011 181.807 798.3 183.081C796.282 186.705 794.228 190.301 792.136 193.884C791.402 195.14 790.511 195.615 788.997 195.592C785.41 195.518 781.832 195.546 778.254 195.666C778.177 195.67 778.102 195.693 778.037 195.734C777.972 195.774 777.918 195.83 777.88 195.897C773.751 203.211 769.589 210.506 765.391 217.78C764.611 219.133 763.637 219.456 762.044 219.461C757.441 219.475 752.801 219.479 748.115 219.47C747.679 219.469 747.251 219.353 746.874 219.133C746.497 218.913 746.185 218.598 745.969 218.219L739.805 207.494C739.769 207.424 739.714 207.366 739.646 207.326C739.579 207.285 739.501 207.266 739.422 207.268H715.793C714.478 207.407 713.24 207.263 712.077 206.843L704.676 194.055C704.457 193.676 704.341 193.247 704.34 192.81C704.338 192.372 704.451 191.942 704.667 191.562L710.239 181.774C710.319 181.636 710.361 181.479 710.361 181.32C710.361 181.16 710.319 181.003 710.239 180.865C707.337 175.839 704.451 170.804 701.583 165.759L697.936 159.318C697.197 157.887 697.137 157.028 698.374 154.863C700.521 151.11 702.654 147.361 704.778 143.617C705.387 142.536 706.181 142.075 707.474 142.07C711.458 142.053 715.443 142.052 719.427 142.066C719.527 142.065 719.626 142.037 719.713 141.986C719.8 141.935 719.871 141.862 719.921 141.775L732.875 119.176C733.072 118.832 733.355 118.546 733.697 118.346C734.039 118.147 734.428 118.041 734.824 118.04C737.243 118.035 739.685 118.04 742.132 118.012L746.827 117.906C748.402 117.892 750.17 118.054 750.982 119.476ZM735.138 121.336C735.089 121.336 735.041 121.349 734.999 121.373C734.957 121.398 734.922 121.433 734.898 121.475L721.666 144.628C721.602 144.737 721.511 144.828 721.402 144.891C721.293 144.954 721.169 144.987 721.043 144.988H707.811C707.553 144.988 707.488 145.103 707.622 145.33L734.445 192.217C734.561 192.411 734.505 192.504 734.288 192.508L721.384 192.578C721.196 192.571 721.009 192.618 720.846 192.713C720.683 192.807 720.549 192.946 720.461 193.113L714.367 203.778C714.164 204.138 714.27 204.323 714.681 204.323L741.07 204.359C741.283 204.359 741.44 204.452 741.55 204.641L748.028 215.971C748.24 216.345 748.452 216.349 748.669 215.971L771.781 175.528L775.396 169.147C775.418 169.108 775.45 169.075 775.489 169.052C775.528 169.03 775.572 169.017 775.617 169.017C775.663 169.017 775.707 169.03 775.746 169.052C775.785 169.075 775.817 169.108 775.839 169.147L782.413 180.828C782.463 180.915 782.534 180.988 782.621 181.038C782.708 181.089 782.807 181.115 782.907 181.114L795.663 181.022C795.696 181.022 795.728 181.014 795.757 180.997C795.785 180.981 795.809 180.958 795.825 180.929C795.841 180.901 795.849 180.869 795.849 180.837C795.849 180.805 795.841 180.773 795.825 180.745L782.436 157.264C782.388 157.185 782.363 157.095 782.363 157.003C782.363 156.911 782.388 156.821 782.436 156.742L783.789 154.402L788.96 145.274C789.071 145.085 789.015 144.988 788.798 144.988H735.267C734.995 144.988 734.93 144.868 735.068 144.632L741.689 133.067C741.738 132.989 741.765 132.897 741.765 132.804C741.765 132.711 741.738 132.62 741.689 132.541L735.382 121.479C735.358 121.436 735.323 121.399 735.28 121.374C735.237 121.349 735.188 121.336 735.138 121.336ZM764.177 158.363C764.389 158.363 764.445 158.455 764.334 158.64L760.493 165.403L748.429 186.571C748.407 186.612 748.373 186.647 748.332 186.67C748.292 186.694 748.245 186.706 748.198 186.705C748.152 186.705 748.106 186.692 748.065 186.669C748.025 186.645 747.991 186.612 747.968 186.571L732.026 158.723C731.934 158.566 731.98 158.483 732.155 158.473L733.152 158.418L764.186 158.363H764.177Z" fill="#625CEE"/>
<rect x="749.803" y="170.3" width="3.22011" height="3.22011" rx="1.61006" transform="rotate(180 749.803 170.3)" fill="white" stroke="#141C2E" stroke-width="0.62633"/>
<path d="M847.273 221.132C804.446 221.132 769.722 207.108 748.236 168.771" stroke="white"/>
<defs>
<filter id="filter0_f_362_50493" x="121.318" y="243.482" width="32.5041" height="30.2087" filterUnits="userSpaceOnUse" color-interpolation-filters="sRGB">
<feFlood flood-opacity="0" result="BackgroundImageFix"/>
<feBlend mode="normal" in="SourceGraphic" in2="BackgroundImageFix" result="shape"/>
<feGaussianBlur stdDeviation="0.23504" result="effect1_foregroundBlur_362_50493"/>
</filter>
<filter id="filter1_f_362_50493" x="162.27" y="201.392" width="30.1872" height="24.2517" filterUnits="userSpaceOnUse" color-interpolation-filters="sRGB">
<feFlood flood-opacity="0" result="BackgroundImageFix"/>
<feBlend mode="normal" in="SourceGraphic" in2="BackgroundImageFix" result="shape"/>
<feGaussianBlur stdDeviation="0.23504" result="effect1_foregroundBlur_362_50493"/>
</filter>
<filter id="filter2_f_362_50493" x="131.63" y="201.339" width="33.0368" height="26.8874" filterUnits="userSpaceOnUse" color-interpolation-filters="sRGB">
<feFlood flood-opacity="0" result="BackgroundImageFix"/>
<feBlend mode="normal" in="SourceGraphic" in2="BackgroundImageFix" result="shape"/>
<feGaussianBlur stdDeviation="0.23504" result="effect1_foregroundBlur_362_50493"/>
</filter>
<filter id="filter3_f_362_50493" x="159.64" y="244.154" width="45.032" height="42.0427" filterUnits="userSpaceOnUse" color-interpolation-filters="sRGB">
<feFlood flood-opacity="0" result="BackgroundImageFix"/>
<feBlend mode="normal" in="SourceGraphic" in2="BackgroundImageFix" result="shape"/>
<feGaussianBlur stdDeviation="0.23504" result="effect1_foregroundBlur_362_50493"/>
</filter>
<filter id="filter4_f_362_50493" x="162.816" y="234.896" width="41.9284" height="18.112" filterUnits="userSpaceOnUse" color-interpolation-filters="sRGB">
<feFlood flood-opacity="0" result="BackgroundImageFix"/>
<feBlend mode="normal" in="SourceGraphic" in2="BackgroundImageFix" result="shape"/>
<feGaussianBlur stdDeviation="0.23504" result="effect1_foregroundBlur_362_50493"/>
</filter>
<filter id="filter5_f_362_50493" x="121.309" y="214.922" width="27.1374" height="31.1706" filterUnits="userSpaceOnUse" color-interpolation-filters="sRGB">
<feFlood flood-opacity="0" result="BackgroundImageFix"/>
<feBlend mode="normal" in="SourceGraphic" in2="BackgroundImageFix" result="shape"/>
<feGaussianBlur stdDeviation="0.23504" result="effect1_foregroundBlur_362_50493"/>
</filter>
<filter id="filter6_f_362_50493" x="126.875" y="201.899" width="31.0853" height="27.5482" filterUnits="userSpaceOnUse" color-interpolation-filters="sRGB">
<feFlood flood-opacity="0" result="BackgroundImageFix"/>
<feBlend mode="normal" in="SourceGraphic" in2="BackgroundImageFix" result="shape"/>
<feGaussianBlur stdDeviation="1.65243" result="effect1_foregroundBlur_362_50493"/>
</filter>
<filter id="filter7_f_362_50493" x="133.502" y="264.395" width="30.862" height="21.864" filterUnits="userSpaceOnUse" color-interpolation-filters="sRGB">
<feFlood flood-opacity="0" result="BackgroundImageFix"/>
<feBlend mode="normal" in="SourceGraphic" in2="BackgroundImageFix" result="shape"/>
<feGaussianBlur stdDeviation="0.23504" result="effect1_foregroundBlur_362_50493"/>
</filter>
<filter id="filter8_f_362_50493" x="158.375" y="267.094" width="11.0354" height="19.1648" filterUnits="userSpaceOnUse" color-interpolation-filters="sRGB">
<feFlood flood-opacity="0" result="BackgroundImageFix"/>
<feBlend mode="normal" in="SourceGraphic" in2="BackgroundImageFix" result="shape"/>
<feGaussianBlur stdDeviation="0.23504" result="effect1_foregroundBlur_362_50493"/>
</filter>
<radialGradient id="paint0_radial_362_50493" cx="0" cy="0" r="1" gradientUnits="userSpaceOnUse" gradientTransform="translate(83.436 323.265) scale(126.948)">
<stop stop-color="white"/>
<stop offset="1" stop-color="white" stop-opacity="0"/>
</radialGradient>
<radialGradient id="paint1_radial_362_50493" cx="0" cy="0" r="1" gradientUnits="userSpaceOnUse" gradientTransform="translate(152.972 272.598) rotate(-92.3395) scale(41.3778 60.7791)">
<stop offset="0.141612" stop-color="#1ABD4D"/>
<stop offset="0.247515" stop-color="#6EC30D"/>
<stop offset="0.311547" stop-color="#8AC502"/>
<stop offset="0.366013" stop-color="#A2C600"/>
<stop offset="0.445673" stop-color="#C8C903"/>
<stop offset="0.540305" stop-color="#EBCB03"/>
<stop offset="0.615636" stop-color="#F7CD07"/>
<stop offset="0.699345" stop-color="#FDCD04"/>
<stop offset="0.771242" stop-color="#FDCE05"/>
<stop offset="0.860566" stop-color="#FFCE0A"/>
</radialGradient>
<radialGradient id="paint2_radial_362_50493" cx="0" cy="0" r="1" gradientTransform="matrix(28.6848 -7.04131e-05 -4.03176e-05 37.0448 190.849 224.294)" gradientUnits="userSpaceOnUse">
<stop offset="0.408458" stop-color="#FB4E5A"/>
<stop offset="1" stop-color="#FF4540"/>
</radialGradient>
<radialGradient id="paint3_radial_362_50493" cx="0" cy="0" r="1" gradientUnits="userSpaceOnUse" gradientTransform="translate(175.184 196.446) rotate(151.02) scale(45.942 62.3429)">
<stop offset="0.231273" stop-color="#FF4541"/>
<stop offset="0.311547" stop-color="#FF4540"/>
<stop offset="0.457516" stop-color="#FF4640"/>
<stop offset="0.540305" stop-color="#FF473F"/>
<stop offset="0.699346" stop-color="#FF5138"/>
<stop offset="0.771242" stop-color="#FF5B33"/>
<stop offset="0.860566" stop-color="#FF6C29"/>
<stop offset="1" stop-color="#FF8C18"/>
</radialGradient>
<radialGradient id="paint4_radial_362_50493" cx="0" cy="0" r="1" gradientUnits="userSpaceOnUse" gradientTransform="translate(164.49 280.353) rotate(-127.454) scale(119.851 44.2401)">
<stop offset="0.131546" stop-color="#0CBA65"/>
<stop offset="0.209784" stop-color="#0BB86D"/>
<stop offset="0.297297" stop-color="#09B479"/>
<stop offset="0.396257" stop-color="#08AD93"/>
<stop offset="0.477124" stop-color="#0AA6A9"/>
<stop offset="0.568425" stop-color="#0D9CC6"/>
<stop offset="0.667385" stop-color="#1893DD"/>
<stop offset="0.768727" stop-color="#258BF1"/>
<stop offset="0.858506" stop-color="#3086FF"/>
</radialGradient>
<radialGradient id="paint5_radial_362_50493" cx="0" cy="0" r="1" gradientUnits="userSpaceOnUse" gradientTransform="translate(160.331 209.65) rotate(96.6178) scale(44.7557 61.8825)">
<stop offset="0.366013" stop-color="#FF4E3A"/>
<stop offset="0.457516" stop-color="#FF8A1B"/>
<stop offset="0.540305" stop-color="#FFA312"/>
<stop offset="0.615636" stop-color="#FFB60C"/>
<stop offset="0.771242" stop-color="#FFCD0A"/>
<stop offset="0.860566" stop-color="#FECF0A"/>
<stop offset="0.915033" stop-color="#FECF08"/>
<stop offset="1" stop-color="#FDCD01"/>
</radialGradient>
<radialGradient id="paint6_radial_362_50493" cx="0" cy="0" r="1" gradientUnits="userSpaceOnUse" gradientTransform="translate(153.078 209.189) rotate(132.119) scale(22.2298 62.7)">
<stop offset="0.315904" stop-color="#FF4C3C"/>
<stop offset="0.603818" stop-color="#FF692C"/>
<stop offset="0.726837" stop-color="#FF7825"/>
<stop offset="0.884534" stop-color="#FF8D1B"/>
<stop offset="1" stop-color="#FF9F13"/>
</radialGradient>
<radialGradient id="paint7_radial_362_50493" cx="0" cy="0" r="1" gradientUnits="userSpaceOnUse" gradientTransform="translate(175.184 290.9) rotate(-151.02) scale(45.942 62.3429)">
<stop offset="0.231273" stop-color="#0FBC5F"/>
<stop offset="0.311547" stop-color="#0FBC5F"/>
<stop offset="0.366013" stop-color="#0FBC5E"/>
<stop offset="0.457516" stop-color="#0FBC5D"/>
<stop offset="0.540305" stop-color="#12BC58"/>
<stop offset="0.699346" stop-color="#28BF3C"/>
<stop offset="0.771242" stop-color="#38C02B"/>
<stop offset="0.860566" stop-color="#52C218"/>
<stop offset="0.915033" stop-color="#67C30F"/>
<stop offset="1" stop-color="#86C504"/>
</radialGradient>
<linearGradient id="paint8_linear_362_50493" x1="158.845" y1="276.677" x2="168.941" y2="276.677" gradientUnits="userSpaceOnUse">
<stop stop-color="#0FBC5C"/>
<stop offset="1" stop-color="#0CBA65"/>
</linearGradient>
<radialGradient id="paint9_radial_362_50493" cx="0" cy="0" r="1" gradientUnits="userSpaceOnUse" gradientTransform="translate(195.067 337.927) scale(126.948)">
<stop stop-color="#5019C5"/>
<stop offset="1" stop-color="#5019C5" stop-opacity="0"/>
</radialGradient>
<radialGradient id="paint10_radial_362_50493" cx="0" cy="0" r="1" gradientUnits="userSpaceOnUse" gradientTransform="translate(296.607 292.971) scale(126.948)">
<stop stop-color="#4D6BFE"/>
<stop offset="1" stop-color="#4D6BFE" stop-opacity="0"/>
</radialGradient>
<radialGradient id="paint11_radial_362_50493" cx="0" cy="0" r="1" gradientUnits="userSpaceOnUse" gradientTransform="translate(371.702 204.77) scale(126.948)">
<stop stop-color="#F43E01"/>
<stop offset="1" stop-color="#F43E01" stop-opacity="0"/>
</radialGradient>
<radialGradient id="paint12_radial_362_50493" cx="0" cy="0" r="1" gradientUnits="userSpaceOnUse" gradientTransform="translate(474.377 160.181) scale(126.948)">
<stop stop-color="white"/>
<stop offset="1" stop-color="white" stop-opacity="0"/>
</radialGradient>
<radialGradient id="paint13_radial_362_50493" cx="0" cy="0" r="1" gradientUnits="userSpaceOnUse" gradientTransform="translate(585.827 175.071) scale(126.948)">
<stop stop-color="#594CE9"/>
<stop offset="1" stop-color="#594CE9" stop-opacity="0"/>
</radialGradient>
<radialGradient id="paint14_radial_362_50493" cx="0" cy="0" r="1" gradientUnits="userSpaceOnUse" gradientTransform="translate(668.602 248.281) scale(126.948)">
<stop stop-color="#625CEE"/>
<stop offset="1" stop-color="#625CEE" stop-opacity="0"/>
</radialGradient>
</defs>
</svg>
