<svg width="121" height="112" viewBox="0 0 121 112" fill="none" xmlns="http://www.w3.org/2000/svg">
<path d="M118.288 97.3046C116.912 100.432 113.491 102.896 106.848 105.54C99.6517 108.404 92.0013 110.393 84.2151 110.393C77.1311 110.393 71.8604 108.43 68.5171 104.553C65.6437 105.047 62.6914 105.305 59.679 105.305C56.8719 105.305 54.1157 105.08 51.429 104.651C48.0805 108.462 42.8389 110.392 35.8151 110.392C28.062 110.392 20.3505 108.393 13.1835 105.54C6.53938 102.896 3.11825 100.432 1.74171 97.3046C1.26156 96.2223 1.05535 95.0385 1.14129 93.8576C1.22722 92.6768 1.60267 91.5352 2.23444 90.5339C1.61747 89.6026 1.20379 88.5517 1.0204 87.4498C0.837013 86.3479 0.888035 85.2196 1.17014 84.1387C1.57885 82.5786 2.42324 81.2809 3.57053 80.3493C3.01748 79.4378 2.65506 78.4236 2.50519 77.368C2.17532 75.0714 2.93361 72.7758 4.6421 70.9086C5.03188 70.4831 5.47544 70.1104 5.96159 69.7996C7.16493 69.0355 8.56417 68.6369 9.98957 68.6524C9.56488 67.2878 9.19665 65.9062 8.88584 64.5113C8.04823 60.748 7.62696 56.9041 7.62963 53.0487C7.62963 24.188 30.9323 0.792969 59.679 0.792969C88.4256 0.792969 111.728 24.188 111.728 53.0487C111.73 56.8909 111.312 60.7217 110.481 64.4729C110.166 65.8936 109.791 67.3005 109.357 68.6897C110.783 68.5462 112.221 68.8163 113.498 69.4677C114.208 69.8323 114.848 70.3201 115.388 70.9086C117.097 72.7758 117.855 75.0714 117.525 77.368C117.375 78.4236 117.013 79.4378 116.46 80.3493C117.607 81.2809 118.451 82.5786 118.86 84.1387C119.142 85.2196 119.193 86.3479 119.01 87.4498C118.826 88.5517 118.413 89.6026 117.796 90.5339C118.427 91.5352 118.803 92.6768 118.889 93.8576C118.975 95.0385 118.769 96.2223 118.288 97.3046Z" fill="white" stroke="#E5E5E5" stroke-width="0.885696" stroke-linecap="round" stroke-linejoin="round" stroke-dasharray="1.87 1.45"/>
<path d="M70.3561 7.41885C66.8563 6.59868 63.2735 6.1855 59.6788 6.18754C53.4364 6.17953 47.2566 7.43208 41.5099 9.87008C28.7901 15.2715 18.951 26.1728 14.952 39.6053C13.6564 43.9689 13.0002 48.4973 13.0039 53.0492C13.0039 56.8354 13.45 60.5159 14.2944 64.0418L14.3296 64.0003C15.6844 62.3738 17.6284 61.4775 19.8026 61.4775C21.5433 61.4775 23.3337 62.0553 25.1262 63.1964C26.315 63.9536 27.6283 65.298 28.981 66.9858C30.2341 65.241 31.9892 64.0812 33.9954 63.7638C34.3787 63.7033 34.7661 63.6728 35.1541 63.6725H35.1562C39.7371 63.6725 42.4943 67.6632 43.5358 71.2523C44.0534 72.466 46.5358 77.9888 50.2702 81.7346C55.9558 87.44 57.3801 93.3258 54.5648 99.6318C56.2634 99.8181 57.971 99.9113 59.6799 99.9108L59.8894 99.9098H59.9434L60.045 99.9087C61.8466 99.8955 63.6459 99.7784 65.434 99.5581C62.6643 93.2802 64.0979 87.4182 69.7617 81.7346C73.4961 77.9888 75.9785 72.465 76.4961 71.2523C77.5376 67.6632 80.2948 63.6725 84.8757 63.6725H84.8778C85.2626 63.6725 85.6527 63.7036 86.0365 63.7638C88.0437 64.0812 89.7979 65.241 91.051 66.9858C92.4036 65.298 93.7169 63.9547 94.9057 63.1964C96.6972 62.0553 98.4887 61.4775 100.229 61.4775C102.148 61.4775 103.888 62.1756 105.201 63.4578C105.971 60.0419 106.359 56.5508 106.357 53.0492C106.356 51.4309 106.276 49.8334 106.116 48.2567C104.089 28.2195 89.4867 11.9126 70.3572 7.41885M49.9445 69.5698C44.8055 65.2752 42.5535 58.9101 42.5535 54.7701C42.5535 51.5575 44.7443 52.6467 48.237 54.3842C51.3418 55.9288 55.4766 57.9838 60.0149 57.9838C64.5533 57.9838 68.6871 55.9288 71.7928 54.3842C75.2855 52.6467 77.4774 51.5575 77.4774 54.7701C77.4774 58.7462 75.6476 65.1912 70.6725 69.1621C68.0605 71.2285 64.5875 72.6558 60.0668 72.6558C55.8189 72.6558 52.4963 71.4318 49.9445 69.5698ZM77.6206 42.0876C77.105 41.3387 76.5635 40.5524 75.8364 40.2931C75.1631 40.0545 74.2824 40.4092 73.437 40.7495C72.3582 41.182 71.3354 41.5928 70.8748 40.7225C69.1331 37.4342 70.3769 33.3522 73.6517 31.6043C76.9266 29.8564 80.993 31.1033 82.7347 34.3917C84.4763 37.68 83.2326 41.7619 79.9577 43.5098C78.9639 44.041 78.3166 43.099 77.6206 42.0876ZM44.1935 40.2931C43.4663 40.5524 42.9248 41.3387 42.4093 42.0876C41.7143 43.099 41.0659 44.041 40.0722 43.5109C36.7962 41.7619 35.5535 37.68 37.2952 34.3917C39.0359 31.1033 43.1032 29.8554 46.3781 31.6033C49.653 33.3522 50.8957 37.4342 49.1551 40.7215C48.6945 41.5928 47.6717 41.1821 46.5928 40.7484C45.7474 40.4092 44.8667 40.0555 44.1935 40.2931ZM95.6101 42.2609C95.6123 43.4209 95.1536 44.5342 94.335 45.3561C93.5165 46.178 92.4049 46.6411 91.2449 46.6436C88.8891 46.6392 86.8743 44.6399 86.8788 42.2609C86.8743 39.8819 88.8891 37.8826 91.2449 37.8781C92.4049 37.8806 93.5165 38.3437 94.335 39.1656C95.1536 39.9875 95.6123 41.1009 95.6101 42.2609ZM28.7849 46.6436C29.9449 46.6411 31.0564 46.178 31.875 45.3561C32.6936 44.5342 33.1522 43.4209 33.15 42.2609C33.1522 41.1009 32.6936 39.9875 31.875 39.1656C31.0564 38.3437 29.9449 37.8806 28.7849 37.8781C27.6249 37.8806 26.5134 38.3437 25.6948 39.1656C24.8762 39.9875 24.4176 41.1009 24.4198 42.2609C24.4176 43.4209 24.8762 44.5342 25.6948 45.3561C26.5134 46.178 27.6249 46.6411 28.7849 46.6436Z" stroke="#E5E5E5" stroke-width="0.885696" stroke-linecap="round" stroke-linejoin="round" stroke-dasharray="1.87 1.45"/>
<mask id="mask0_2525_7125" style="mask-type:alpha" maskUnits="userSpaceOnUse" x="24" y="30" width="72" height="43">
<path d="M42.5535 54.7701C42.5535 58.9101 44.8055 65.2752 49.9445 69.5698C52.4963 71.4318 55.8189 72.6559 60.0668 72.6559C64.5875 72.6559 68.0605 71.2285 70.6725 69.1621C75.6476 65.1912 77.4774 58.7462 77.4774 54.7701C77.4774 51.5575 75.2855 52.6467 71.7928 54.3842C68.687 55.9288 64.5533 57.9838 60.0149 57.9838C55.4766 57.9838 51.3418 55.9288 48.237 54.3842C44.7443 52.6467 42.5535 51.5575 42.5535 54.7701Z" fill="#D9D9D9"/>
<path d="M75.8364 40.2931C76.5635 40.5524 77.105 41.3387 77.6206 42.0876L77.622 42.0897C78.3175 43.1003 78.9646 44.0406 79.9577 43.5098C83.2326 41.7619 84.4763 37.68 82.7347 34.3917C80.993 31.1033 76.9266 29.8564 73.6517 31.6043C70.3769 33.3522 69.1331 37.4342 70.8748 40.7225C71.3351 41.5923 72.3569 41.1826 73.4349 40.7503L73.437 40.7495L73.4386 40.7488C74.2836 40.4088 75.1636 40.0546 75.8364 40.2931Z" fill="#D9D9D9"/>
<path d="M42.4093 42.0876C42.9248 41.3387 43.4663 40.5524 44.1935 40.2931C44.8662 40.0557 45.7461 40.4087 46.591 40.7477L46.5928 40.7484C47.6717 41.1821 48.6945 41.5928 49.1551 40.7215C50.8957 37.4342 49.653 33.3522 46.3781 31.6033C43.1032 29.8554 39.0359 31.1033 37.2952 34.3917C35.5535 37.68 36.7962 41.7619 40.0722 43.5109C41.0659 44.041 41.7143 43.099 42.4093 42.0876Z" fill="#D9D9D9"/>
<path d="M94.335 45.3561C95.1536 44.5342 95.6123 43.4209 95.6101 42.2609C95.6123 41.1009 95.1536 39.9875 94.335 39.1656C93.5165 38.3437 92.4049 37.8806 91.2449 37.8781C90.6705 37.8792 90.1019 37.9935 89.5716 38.2143C89.0412 38.4351 88.5596 38.7583 88.1542 39.1652C87.7487 39.5722 87.4274 40.0551 87.2086 40.5862C86.9898 41.1174 86.8777 41.6864 86.8788 42.2609C86.8777 42.8353 86.9898 43.4044 87.2086 43.9355C87.4274 44.4667 87.7487 44.9495 88.1542 45.3565C88.5596 45.7635 89.0412 46.0866 89.5716 46.3075C90.1019 46.5283 90.6705 46.6425 91.2449 46.6436C92.4049 46.6411 93.5165 46.178 94.335 45.3561Z" fill="#D9D9D9"/>
<path d="M31.875 45.3561C31.0564 46.178 29.9449 46.6411 28.7849 46.6436C27.6249 46.6411 26.5134 46.178 25.6948 45.3561C24.8762 44.5342 24.4176 43.4209 24.4198 42.2609C24.4176 41.1009 24.8762 39.9875 25.6948 39.1656C26.5134 38.3437 27.6249 37.8806 28.7849 37.8781C29.9449 37.8806 31.0564 38.3437 31.875 39.1656C32.6936 39.9875 33.1522 41.1009 33.15 42.2609C33.1522 43.4209 32.6936 44.5342 31.875 45.3561Z" fill="#D9D9D9"/>
</mask>
<g mask="url(#mask0_2525_7125)">
<path d="M39.5358 81.2692L78.9099 1.94141M37.7613 81.2692L77.1354 1.94141M35.9865 81.2692L75.361 1.94141M34.212 81.2692L73.5866 1.94141M32.4376 81.2692L71.8121 1.94141M30.6632 81.2692L70.0377 1.94141M28.8888 81.2692L68.2633 1.94141M27.1144 81.2692L66.4889 1.94141M25.34 81.2692L64.7145 1.94141M23.5655 81.2692L62.94 1.94141M21.7911 81.2692L61.1656 1.94141M20.0167 81.2692L59.3912 1.94141M18.2423 81.2692L57.6168 1.94141M16.4678 81.2692L55.8424 1.94141M14.6934 81.2692L54.0679 1.94141M12.919 81.2692L52.2935 1.94141M11.1446 81.2692L50.519 1.94141M9.37016 81.2692L48.7445 1.94141M7.59574 81.2692L46.9701 1.94141M5.82133 81.2692L45.1957 1.94141M4.0469 81.2692L43.4213 1.94141M2.27249 81.2692L41.6469 1.94141M0.498061 81.2692L39.8724 1.94141M-1.27636 81.2692L38.098 1.94141M-3.05078 81.2692L36.3236 1.94141M-4.8252 81.2692L34.5492 1.94141M85.4807 81.2692L124.855 1.94141M83.7063 81.2692L123.08 1.94141M81.9315 81.2692L121.306 1.94141M80.157 81.2692L119.532 1.94141M78.3826 81.2692L117.757 1.94141M76.6082 81.2692L115.983 1.94141M74.8338 81.2692L114.208 1.94141M73.0594 81.2692L112.434 1.94141M71.2849 81.2692L110.659 1.94141M69.5105 81.2692L108.885 1.94141M67.7361 81.2692L107.111 1.94141M65.9617 81.2692L105.336 1.94141M64.1873 81.2692L103.562 1.94141M62.4128 81.2692L101.787 1.94141M60.6384 81.2692L100.013 1.94141M58.864 81.2692L98.2385 1.94141M57.0896 81.2692L96.464 1.94141M55.3152 81.2692L94.6895 1.94141M53.5407 81.2692L92.9151 1.94141M51.7663 81.2692L91.1407 1.94141M49.9919 81.2692L89.3663 1.94141M48.2175 81.2692L87.5919 1.94141M46.443 81.2692L85.8174 1.94141M44.6686 81.2692L84.043 1.94141M42.8942 81.2692L82.2686 1.94141M41.1198 81.2692L80.4942 1.94141" stroke="#E5E5E5" stroke-width="0.885696"/>
</g>
<path d="M46.4706 85.5503C51.5422 90.6394 51.8046 94.7244 48.1075 100.166C42.9717 107.728 28.2675 104.533 22.4791 103.025C22.3349 102.988 4.41185 97.9049 6.68154 93.5792C8.9502 89.2546 20.0424 100.354 21.1078 96.5159C22.1731 92.6799 4.91392 91.0668 6.36723 85.5098C7.82261 79.9518 23.31 93.0616 24.3059 91.4485C25.3017 89.8355 24.7571 88.71 17.7395 84.4465C10.7251 80.1831 5.80188 77.6177 8.60061 74.5566C11.4004 71.4954 24.2571 83.2432 24.2571 83.2432C24.2571 83.2432 28.366 87.5326 29.533 85.5606C30.6979 83.5876 18.7157 74.4715 18.0393 70.7112C17.364 66.9498 19.3816 65.927 22.2468 67.7517C25.1129 69.5763 30.6409 79.1167 32.6647 82.8283C34.6886 86.5399 40.9976 83.8552 35.7363 79.904C30.4749 75.9507 32.3203 69.4913 34.8317 69.0929C37.3431 68.6946 38.4458 73.0182 38.4458 73.0182C38.4458 73.0182 41.3981 80.4621 46.4706 85.5503Z" fill="white"/>
<path d="M71.9227 100.166C68.2267 94.7244 68.4891 90.6394 73.5617 85.5503C78.6322 80.4621 81.5855 73.0182 81.5855 73.0182C81.5855 73.0182 82.6881 68.6946 85.1995 69.0929C87.7109 69.4913 89.5553 75.9507 84.2939 79.904C79.0326 83.8552 85.3417 86.5399 87.3665 82.8283C89.3904 79.1177 94.9173 69.5763 97.7845 67.7517C100.65 65.927 102.667 66.9498 101.991 70.7112C101.316 74.4715 89.3323 83.5876 90.4982 85.5606C91.6642 87.5326 95.7731 83.2432 95.7731 83.2432C95.7731 83.2432 108.631 71.4954 111.43 74.5566C114.228 77.6177 109.306 80.1831 102.291 84.4465C95.2741 88.71 94.7295 89.8355 95.7254 91.4485C96.7212 93.0616 112.209 79.9518 113.664 85.5098C115.117 91.0668 97.8581 92.6799 98.9235 96.5159C99.9888 100.354 111.081 89.2546 113.35 93.5792C115.619 97.9049 97.6974 102.988 97.5521 103.025C91.7628 104.533 77.0596 107.728 71.9237 100.166M48.1075 100.166C51.8046 94.7244 51.5422 90.6394 46.4706 85.5503C41.3981 80.4621 38.4458 73.0182 38.4458 73.0182C38.4458 73.0182 37.3431 68.6946 34.8317 69.0929C32.3203 69.4913 30.4749 75.9507 35.7363 79.904C40.9976 83.8552 34.6886 86.5399 32.6647 82.8283C30.6409 79.1167 25.1129 69.5763 22.2468 67.7517C19.3816 65.927 17.364 66.9498 18.0393 70.7112C18.7157 74.4715 30.6979 83.5876 29.533 85.5606C28.366 87.5326 24.2571 83.2432 24.2571 83.2432C24.2571 83.2432 11.4004 71.4954 8.60061 74.5566C5.80188 77.6177 10.7251 80.1831 17.7395 84.4465C24.7571 88.71 25.3017 89.8355 24.3059 91.4485C23.31 93.0616 7.82261 79.9518 6.36723 85.5098C4.91392 91.0668 22.1731 92.6799 21.1078 96.5159C20.0424 100.354 8.9502 89.2546 6.68154 93.5792C4.41185 97.9049 22.3349 102.988 22.4791 103.025C28.2675 104.533 42.9717 107.728 48.1075 100.166Z" stroke="#E5E5E5" stroke-width="0.885696" stroke-linecap="round" stroke-linejoin="round" stroke-dasharray="1.45 1.24"/>
<path d="M56.9468 63.0938C57.3757 62.966 57.7386 63.1908 57.979 63.4111C58.1593 63.5764 58.1716 63.8568 58.0063 64.0371C57.9957 64.0486 57.9827 64.0572 57.9712 64.0674C58.0252 64.137 58.081 64.2099 58.1353 64.2881C58.1382 64.2862 58.1411 64.2841 58.144 64.2822C58.3254 64.1686 58.5575 64.2025 58.6997 64.3516L58.7544 64.4229L59.1108 65.0088V65.0098C59.2302 65.2104 59.3473 65.4069 59.4644 65.5938C59.5927 65.7986 59.532 66.0666 59.3306 66.1982C59.3905 66.2852 59.452 66.3672 59.5122 66.4453C59.684 66.2958 59.9435 66.2994 60.1099 66.4609C60.2805 66.6265 60.3741 66.6463 60.4019 66.6465C60.4541 66.6465 60.5614 66.6168 60.7358 66.4629C60.9095 66.3096 61.1689 66.3185 61.3335 66.4756C61.4021 66.3943 61.4703 66.3072 61.5386 66.2158C61.3435 66.0766 61.294 65.8069 61.4292 65.6074C61.5555 65.4211 61.682 65.2249 61.811 65.0244V65.0234L61.813 65.0215L61.8149 65.0176L61.8169 65.0146C61.9431 64.8191 62.072 64.6191 62.2007 64.4297C62.3381 64.2274 62.6136 64.1751 62.8159 64.3125C62.8187 64.3144 62.821 64.3174 62.8237 64.3193C62.8861 64.2367 62.9493 64.1595 63.0112 64.0869C63 64.0758 62.9873 64.0653 62.9771 64.0527C62.8229 63.8631 62.851 63.5841 63.0405 63.4297C63.3012 63.2173 63.669 63.0315 64.0874 63.165H64.0884C64.1973 63.2001 64.3059 63.2364 64.4136 63.2744L64.7358 63.3936C64.9639 63.4815 65.0775 63.7377 64.9897 63.9658C64.9887 63.9685 64.986 63.9709 64.9849 63.9736C65.0615 64.0066 65.1375 64.0406 65.2134 64.0752C65.2147 64.0725 65.2159 64.0691 65.2173 64.0664C65.3136 63.8754 65.5292 63.784 65.728 63.8379L65.811 63.8701C66.1178 64.0243 66.418 64.1914 66.7104 64.3711L67.0005 64.5547C67.2051 64.6886 67.2623 64.9633 67.1284 65.168C67.1267 65.1706 67.1234 65.1722 67.1216 65.1748C67.1894 65.223 67.2569 65.2716 67.3237 65.3213C67.3256 65.3188 67.3276 65.3159 67.3296 65.3135C67.4829 65.1231 67.7621 65.0929 67.9526 65.2461C68.0416 65.3176 68.1293 65.3907 68.2163 65.4648L68.4751 65.6914L68.5415 65.7676C68.5988 65.85 68.6271 65.9506 68.6196 66.0527C68.6096 66.1889 68.5369 66.3129 68.4233 66.3887C68.3103 66.464 68.1964 66.5379 68.0815 66.6104C67.9624 66.6854 67.822 66.6948 67.6987 66.6514C67.6791 66.7806 67.6043 66.8999 67.4819 66.9697L67.1245 67.168C66.9327 67.2704 66.7358 67.3694 66.5347 67.4639C66.3134 67.5677 66.0498 67.4722 65.9458 67.251C65.9444 67.2481 65.9432 67.2451 65.9419 67.2422C65.8788 67.2691 65.8155 67.2961 65.7515 67.3223C65.7525 67.325 65.7544 67.3274 65.7554 67.3301C65.8399 67.5596 65.7222 67.8149 65.4927 67.8994C65.0911 68.0474 64.673 68.1794 64.2378 68.2939C64.0014 68.3562 63.7592 68.2149 63.6968 67.9785C63.696 67.9754 63.6956 67.9719 63.6948 67.9688C63.6278 67.9842 63.5606 68.0001 63.4927 68.0146C63.4932 68.0173 63.4951 68.0198 63.4956 68.0225C63.5396 68.263 63.3797 68.4941 63.1392 68.5381C62.7212 68.6146 62.289 68.6754 61.8423 68.7197C61.5991 68.7438 61.3823 68.5664 61.3579 68.3232C61.3576 68.3205 61.3581 68.3172 61.3579 68.3145C61.2892 68.3194 61.2203 68.3249 61.1509 68.3291C61.151 68.3314 61.1518 68.3336 61.1519 68.3359C61.1604 68.5803 60.9694 68.7853 60.7251 68.7939C60.5108 68.8014 60.2932 68.8057 60.0728 68.8057C59.7634 68.8057 59.4596 68.7978 59.1626 68.7832C58.9184 68.7711 58.7307 68.5635 58.7427 68.3193C58.7428 68.3171 58.7425 68.3147 58.7427 68.3125C58.5275 68.2964 58.316 68.2757 58.1079 68.252C58.1076 68.2545 58.1083 68.2572 58.1079 68.2598C58.0733 68.5019 57.8491 68.6703 57.6069 68.6357C57.1364 68.5685 56.6831 68.4826 56.2466 68.3789L55.8149 68.2695C55.579 68.2056 55.4396 67.9616 55.5034 67.7256C55.5041 67.723 55.5046 67.7203 55.5054 67.7178C55.2996 67.6548 55.0982 67.5876 54.9009 67.5166C54.8998 67.5194 54.9 67.5226 54.8989 67.5254C54.8196 67.7241 54.6124 67.8333 54.4097 67.7969L54.3237 67.7725C54.0345 67.6571 53.7534 67.5335 53.4819 67.4023V67.4014L53.1089 67.2197C52.978 67.1541 52.8946 67.0324 52.8716 66.8984C52.7484 66.9555 52.6014 66.9569 52.4731 66.8867L52.1079 66.6816C51.9874 66.6123 51.9063 66.4905 51.8892 66.3525C51.8721 66.2146 51.9211 66.0762 52.021 65.9795C52.207 65.7995 52.3987 65.6261 52.5952 65.459C52.7814 65.3007 53.0608 65.3228 53.2192 65.5088C53.2211 65.511 53.2223 65.5144 53.2241 65.5166C53.3283 65.4347 53.4338 65.3546 53.5405 65.2764C53.5389 65.274 53.5363 65.272 53.5347 65.2695C53.3979 65.0669 53.4512 64.7912 53.6538 64.6543C54.0824 64.3646 54.5295 64.1034 54.9917 63.8711C55.2102 63.7613 55.4765 63.849 55.5864 64.0674C55.5878 64.0701 55.5881 64.0735 55.5894 64.0762C55.7098 64.0213 55.8313 63.9688 55.9536 63.918C55.9525 63.9151 55.9508 63.9121 55.9497 63.9092C55.8648 63.68 55.9813 63.425 56.2104 63.3398L56.5767 63.2109C56.6991 63.1699 56.8228 63.1309 56.9468 63.0938Z" fill="white" stroke="#E5E5E5" stroke-width="0.885696" stroke-linecap="round" stroke-linejoin="round" stroke-dasharray="1.45 1.24"/>
</svg>
