<svg width="401" height="372" viewBox="0 0 401 372" fill="none" xmlns="http://www.w3.org/2000/svg">
<path d="M199.051 335.131C286.369 335.131 357.155 264.345 357.155 177.026C357.155 89.7076 286.369 18.9219 199.051 18.9219C111.732 18.9219 40.9463 89.7076 40.9463 177.026C40.9463 264.345 111.732 335.131 199.051 335.131Z" fill="#FFD21E"/>
<path d="M357.152 177.028C357.152 89.7094 286.366 18.9237 199.048 18.9237C111.729 18.9237 40.9434 89.7094 40.9434 177.028C40.9434 264.347 111.729 335.132 199.048 335.132C286.366 335.132 357.152 264.347 357.152 177.028ZM22.7441 177.028C22.7441 79.6585 101.678 0.724609 199.048 0.724609C296.417 0.724609 375.351 79.6585 375.351 177.028C375.351 274.398 296.417 353.331 199.048 353.331C101.678 353.331 22.7441 274.398 22.7441 177.028Z" fill="#FF9D0B"/>
<path d="M250.417 133.992C256.215 136.039 258.522 147.96 264.38 144.845C275.473 138.947 279.684 125.172 273.786 114.079C267.887 102.986 254.113 98.7748 243.02 104.673C231.927 110.571 227.715 124.346 233.614 135.439C236.398 140.675 245.234 132.161 250.417 133.992Z" fill="#3A3B45"/>
<path d="M143.239 133.994C137.441 136.041 135.134 147.962 129.277 144.847C118.183 138.948 113.972 125.174 119.87 114.081C125.769 102.988 139.543 98.7768 150.636 104.675C161.73 110.573 165.941 124.348 160.043 135.441C157.259 140.677 148.422 132.163 143.239 133.994Z" fill="#3A3B45"/>
<path d="M197.916 243.193C242.633 243.193 257.063 203.324 257.063 182.85C257.063 172.21 249.911 175.559 238.454 181.23C227.868 186.472 213.605 193.696 197.916 193.696C165.251 193.696 138.77 162.377 138.77 182.85C138.77 203.324 153.199 243.193 197.916 243.193Z" fill="#3A3B45"/>
<mask id="mask0_2508_10938" style="mask-type:alpha" maskUnits="userSpaceOnUse" x="138" y="175" width="120" height="69">
<path d="M197.927 243.181C242.644 243.181 257.074 203.312 257.074 182.838C257.074 172.198 249.921 175.547 238.465 181.219C227.878 186.46 213.616 193.685 197.927 193.685C165.261 193.685 138.78 162.365 138.78 182.838C138.78 203.312 153.21 243.181 197.927 243.181Z" fill="white"/>
</mask>
<g mask="url(#mask0_2508_10938)">
<path d="M199.078 289.655C220.871 289.655 238.538 271.988 238.538 250.195C238.538 233.22 227.82 218.749 212.783 213.18C212.229 212.975 211.67 212.782 211.105 212.601C207.313 211.389 203.272 224.421 199.078 224.421C195.16 224.421 191.374 211.306 187.801 212.37C171.503 217.222 159.618 232.32 159.618 250.195C159.618 271.988 177.285 289.655 199.078 289.655Z" fill="#F94040"/>
</g>
<path d="M305.971 155.415C314.138 155.415 320.758 148.795 320.758 140.629C320.758 132.462 314.138 125.842 305.971 125.842C297.804 125.842 291.185 132.462 291.185 140.629C291.185 148.795 297.804 155.415 305.971 155.415Z" fill="#FF9D0B"/>
<path d="M94.4098 155.431C102.576 155.431 109.197 148.811 109.197 140.644C109.197 132.478 102.576 125.857 94.4098 125.857C86.243 125.857 79.623 132.478 79.623 140.644C79.623 148.811 86.243 155.431 94.4098 155.431Z" fill="#FF9D0B"/>
<path d="M63.9795 205.473C56.6134 205.473 50.0299 208.498 45.4392 213.985C42.6002 217.384 39.6337 222.862 39.3926 231.065C36.3033 230.178 33.3323 229.682 30.5569 229.682C23.5048 229.682 17.1351 232.385 12.6309 237.294C6.84357 243.595 4.27296 251.339 5.3922 259.087C5.92452 262.777 7.15751 266.085 9.00016 269.147C5.11466 272.29 2.25286 276.667 0.869733 281.931C-0.213111 286.058 -1.32325 294.653 4.47315 303.506C4.10461 304.084 3.75883 304.685 3.4358 305.299C-0.0493183 311.914 -0.272259 319.39 2.80338 326.351C7.46689 336.902 19.0551 345.214 41.5583 354.136C55.5579 359.687 68.3655 363.236 68.4792 363.268C86.9877 368.068 103.726 370.506 118.217 370.506C144.852 370.506 163.92 362.349 174.894 346.261C192.556 320.354 190.031 296.659 167.177 273.819C154.529 261.18 146.121 242.544 144.369 238.454C140.839 226.342 131.503 212.88 115.983 212.88C114.678 212.88 113.354 212.984 112.052 213.189C105.255 214.258 99.313 218.171 95.0681 224.058C90.4864 218.362 86.0368 213.831 82.0102 211.274C75.9408 207.425 69.876 205.473 63.9795 205.473ZM63.9795 223.672C66.2999 223.672 69.1344 224.659 72.2601 226.643C81.9647 232.799 100.692 264.988 107.548 277.509C109.846 281.704 113.772 283.478 117.307 283.478C124.323 283.478 129.801 276.504 117.949 267.641C100.127 254.305 106.379 232.507 114.887 231.165C115.26 231.106 115.628 231.079 115.983 231.079C123.718 231.079 127.13 244.41 127.13 244.41C127.13 244.41 137.131 269.524 154.311 286.69C171.49 303.861 172.378 317.643 159.857 336.005C151.317 348.526 134.969 352.307 118.217 352.307C100.842 352.307 83.0294 348.24 73.0472 345.651C72.5558 345.524 11.8483 328.375 19.5374 313.78C20.8295 311.327 22.9588 310.345 25.6386 310.345C36.4671 310.345 56.163 326.46 64.6301 326.46C66.5228 326.46 67.8559 325.655 68.4019 323.689C72.0098 310.745 13.5454 305.304 18.4728 286.554C19.3418 283.237 21.6986 281.89 25.0108 281.895C39.3198 281.895 71.4229 307.06 78.152 307.06C78.6661 307.06 79.0347 306.91 79.2349 306.591C82.6062 301.15 80.759 297.351 56.9956 282.969C33.2322 268.582 16.5528 259.929 26.039 249.601C27.131 248.409 28.6779 247.881 30.5569 247.881C44.9842 247.886 79.0711 278.906 79.0711 278.906C79.0711 278.906 88.2707 288.474 93.8351 288.474C95.1135 288.474 96.2009 287.969 96.938 286.722C100.883 280.071 60.2988 249.314 58.0102 236.625C56.4587 228.026 59.0976 223.672 63.9795 223.672Z" fill="#FF9D0B"/>
<path d="M159.848 335.998C172.369 317.635 171.481 303.854 154.302 286.683C137.122 269.517 127.121 244.402 127.121 244.402C127.121 244.402 123.386 229.816 114.878 231.158C106.37 232.5 100.123 254.298 117.944 267.633C135.766 280.964 114.396 290.023 107.539 277.502C100.683 264.981 81.9603 232.791 72.2511 226.635C62.5464 220.479 55.7127 223.928 58.0012 236.617C60.2897 249.307 100.878 280.063 96.929 286.719C92.9798 293.371 79.0621 278.898 79.0621 278.898C79.0621 278.898 35.5117 239.265 26.0298 249.593C16.5481 259.921 33.2232 268.575 56.9866 282.961C80.7546 297.343 82.5972 301.142 79.2258 306.584C75.8499 312.025 23.3909 267.797 18.4635 286.547C13.5407 305.296 72.0008 310.738 68.3929 323.682C64.7849 336.63 27.2127 299.181 19.5282 313.772C11.8391 328.368 72.5468 345.516 73.0382 345.643C92.6477 350.73 142.449 361.508 159.848 335.998Z" fill="#FFD21E"/>
<path d="M336.401 205.465C343.767 205.465 350.351 208.49 354.942 213.977C357.781 217.376 360.747 222.854 360.988 231.057C364.077 230.17 367.048 229.674 369.824 229.674C376.876 229.674 383.246 232.377 387.75 237.286C393.537 243.587 396.108 251.331 394.989 259.079C394.456 262.769 393.223 266.077 391.381 269.139C395.266 272.283 398.128 276.66 399.511 281.924C400.594 286.05 401.704 294.645 395.908 303.499C396.276 304.076 396.622 304.677 396.945 305.291C400.43 311.907 400.653 319.382 397.577 326.343C392.914 336.894 381.326 345.206 358.822 354.128C344.823 359.679 332.015 363.228 331.902 363.26C313.393 368.06 296.654 370.498 282.163 370.498C255.529 370.498 236.461 362.341 225.487 346.253C207.825 320.346 210.35 296.651 233.203 273.811C245.852 261.172 254.26 242.536 256.011 238.446C259.542 226.335 268.878 212.872 284.397 212.872C285.703 212.872 287.027 212.977 288.328 213.181C295.126 214.25 301.068 218.163 305.313 224.051C309.894 218.354 314.344 213.823 318.371 211.266C324.44 207.417 330.505 205.465 336.401 205.465ZM336.401 223.664C334.081 223.664 331.246 224.651 328.121 226.635C318.416 232.791 299.689 264.98 292.833 277.501C290.535 281.696 286.609 283.471 283.073 283.471C276.058 283.471 270.58 276.496 282.432 267.633C300.253 254.297 294.002 232.5 285.494 231.157C285.121 231.098 284.752 231.071 284.397 231.071C276.663 231.071 273.251 244.402 273.251 244.402C273.251 244.402 263.25 269.516 246.07 286.683C228.89 303.853 228.003 317.635 240.524 335.998C249.064 348.519 265.411 352.299 282.163 352.299C299.539 352.299 317.351 348.232 327.334 345.643C327.825 345.516 388.532 328.368 380.843 313.772C379.551 311.32 377.422 310.337 374.742 310.337C363.914 310.337 344.218 326.452 335.751 326.452C333.858 326.452 332.525 325.647 331.979 323.681C328.371 310.737 386.835 305.296 381.908 286.546C381.039 283.229 378.682 281.883 375.37 281.887C361.061 281.887 328.958 307.052 322.229 307.052C321.715 307.052 321.346 306.902 321.146 306.583C317.774 301.142 319.622 297.343 343.385 282.961C367.149 268.575 383.828 259.921 374.342 249.593C373.25 248.401 371.703 247.873 369.824 247.873C355.397 247.878 321.31 278.898 321.31 278.898C321.31 278.898 312.11 288.466 306.546 288.466C305.267 288.466 304.18 287.961 303.443 286.715C299.498 280.063 340.082 249.306 342.371 236.617C343.922 228.018 341.283 223.664 336.401 223.664Z" fill="#FF9D0B"/>
<path d="M240.526 335.996C228.005 317.633 228.892 303.852 246.072 286.681C263.252 269.515 273.253 244.4 273.253 244.4C273.253 244.4 276.988 229.814 285.496 231.156C294.004 232.498 300.251 254.296 282.429 267.631C264.608 280.962 285.978 290.021 292.835 277.5C299.691 264.979 318.414 232.789 328.123 226.633C337.827 220.477 344.661 223.926 342.373 236.615C340.084 249.305 299.496 280.061 303.445 286.717C307.394 293.369 321.312 278.896 321.312 278.896C321.312 278.896 364.862 239.263 374.344 249.591C383.826 259.919 367.151 268.573 343.387 282.959C319.619 297.341 317.777 301.14 321.148 306.582C324.524 312.023 376.983 267.795 381.91 286.545C386.833 305.294 328.373 310.736 331.981 323.68C335.589 336.628 373.161 299.179 380.845 313.77C388.535 328.366 327.827 345.514 327.336 345.641C307.726 350.728 257.924 361.506 240.526 335.996Z" fill="#FFD21E"/>
</svg>
